<svg width="188" height="53" viewBox="0 0 188 53" fill="none" xmlns="http://www.w3.org/2000/svg">
<rect width="188" height="53" rx="8" fill="#F90047"/>
<mask id="path-2-outside-1_65_5" maskUnits="userSpaceOnUse" x="55" y="12" width="79" height="32" fill="black">
<rect fill="white" x="55" y="12" width="79" height="32"/>
<path d="M62.5137 40V23.08L58.6617 23.656V18.004L69.2817 16.456V40H62.5137ZM80.2702 40.36C78.9742 40.36 77.8462 40.288 76.8862 40.144C75.9502 40.024 75.0262 39.796 74.1142 39.46V34.204C74.9542 34.564 75.8062 34.816 76.6702 34.96C77.5582 35.104 78.5422 35.176 79.6222 35.176C81.3982 35.176 82.7182 34.84 83.5822 34.168C84.4462 33.496 84.8782 32.692 84.8782 31.756V31.072C84.2782 31.456 83.5102 31.768 82.5742 32.008C81.6622 32.248 80.8102 32.368 80.0182 32.368C77.1622 32.368 75.0742 31.696 73.7542 30.352C72.4582 29.008 71.8102 27.1 71.8102 24.628C71.8102 23.044 72.1342 21.64 72.7822 20.416C73.4302 19.168 74.4622 18.196 75.8782 17.5C77.2942 16.804 79.1542 16.456 81.4582 16.456C84.8182 16.456 87.2782 17.248 88.8382 18.832C90.4222 20.392 91.2142 22.732 91.2142 25.852V30.316C91.2142 32.236 90.7702 33.964 89.8822 35.5C89.0182 37.012 87.7702 38.2 86.1382 39.064C84.5062 39.928 82.5502 40.36 80.2702 40.36ZM81.3142 27.544C81.9142 27.544 82.5262 27.436 83.1502 27.22C83.7742 27.004 84.3502 26.74 84.8782 26.428V24.772C84.8782 23.548 84.5902 22.66 84.0142 22.108C83.4622 21.532 82.5862 21.244 81.3862 21.244C80.2102 21.244 79.3222 21.52 78.7222 22.072C78.1462 22.624 77.8582 23.392 77.8582 24.376C77.8582 25.384 78.1102 26.164 78.6142 26.716C79.1182 27.268 80.0182 27.544 81.3142 27.544ZM94.2694 40L101.901 22H92.6494V16.816H109.497V20.704L101.325 40H94.2694ZM119.399 40.36C118.103 40.36 116.975 40.288 116.015 40.144C115.079 40.024 114.155 39.796 113.243 39.46V34.204C114.083 34.564 114.935 34.816 115.799 34.96C116.687 35.104 117.671 35.176 118.751 35.176C120.527 35.176 121.847 34.84 122.711 34.168C123.575 33.496 124.007 32.692 124.007 31.756V31.072C123.407 31.456 122.639 31.768 121.703 32.008C120.791 32.248 119.939 32.368 119.147 32.368C116.291 32.368 114.203 31.696 112.883 30.352C111.587 29.008 110.939 27.1 110.939 24.628C110.939 23.044 111.263 21.64 111.911 20.416C112.559 19.168 113.591 18.196 115.007 17.5C116.423 16.804 118.283 16.456 120.587 16.456C123.947 16.456 126.407 17.248 127.967 18.832C129.551 20.392 130.343 22.732 130.343 25.852V30.316C130.343 32.236 129.899 33.964 129.011 35.5C128.147 37.012 126.899 38.2 125.267 39.064C123.635 39.928 121.679 40.36 119.399 40.36ZM120.443 27.544C121.043 27.544 121.655 27.436 122.279 27.22C122.903 27.004 123.479 26.74 124.007 26.428V24.772C124.007 23.548 123.719 22.66 123.143 22.108C122.591 21.532 121.715 21.244 120.515 21.244C119.339 21.244 118.451 21.52 117.851 22.072C117.275 22.624 116.987 23.392 116.987 24.376C116.987 25.384 117.239 26.164 117.743 26.716C118.247 27.268 119.147 27.544 120.443 27.544Z"/>
</mask>
<path d="M62.5137 40V23.08L58.6617 23.656V18.004L69.2817 16.456V40H62.5137ZM80.2702 40.36C78.9742 40.36 77.8462 40.288 76.8862 40.144C75.9502 40.024 75.0262 39.796 74.1142 39.46V34.204C74.9542 34.564 75.8062 34.816 76.6702 34.96C77.5582 35.104 78.5422 35.176 79.6222 35.176C81.3982 35.176 82.7182 34.84 83.5822 34.168C84.4462 33.496 84.8782 32.692 84.8782 31.756V31.072C84.2782 31.456 83.5102 31.768 82.5742 32.008C81.6622 32.248 80.8102 32.368 80.0182 32.368C77.1622 32.368 75.0742 31.696 73.7542 30.352C72.4582 29.008 71.8102 27.1 71.8102 24.628C71.8102 23.044 72.1342 21.64 72.7822 20.416C73.4302 19.168 74.4622 18.196 75.8782 17.5C77.2942 16.804 79.1542 16.456 81.4582 16.456C84.8182 16.456 87.2782 17.248 88.8382 18.832C90.4222 20.392 91.2142 22.732 91.2142 25.852V30.316C91.2142 32.236 90.7702 33.964 89.8822 35.5C89.0182 37.012 87.7702 38.2 86.1382 39.064C84.5062 39.928 82.5502 40.36 80.2702 40.36ZM81.3142 27.544C81.9142 27.544 82.5262 27.436 83.1502 27.22C83.7742 27.004 84.3502 26.74 84.8782 26.428V24.772C84.8782 23.548 84.5902 22.66 84.0142 22.108C83.4622 21.532 82.5862 21.244 81.3862 21.244C80.2102 21.244 79.3222 21.52 78.7222 22.072C78.1462 22.624 77.8582 23.392 77.8582 24.376C77.8582 25.384 78.1102 26.164 78.6142 26.716C79.1182 27.268 80.0182 27.544 81.3142 27.544ZM94.2694 40L101.901 22H92.6494V16.816H109.497V20.704L101.325 40H94.2694ZM119.399 40.36C118.103 40.36 116.975 40.288 116.015 40.144C115.079 40.024 114.155 39.796 113.243 39.46V34.204C114.083 34.564 114.935 34.816 115.799 34.96C116.687 35.104 117.671 35.176 118.751 35.176C120.527 35.176 121.847 34.84 122.711 34.168C123.575 33.496 124.007 32.692 124.007 31.756V31.072C123.407 31.456 122.639 31.768 121.703 32.008C120.791 32.248 119.939 32.368 119.147 32.368C116.291 32.368 114.203 31.696 112.883 30.352C111.587 29.008 110.939 27.1 110.939 24.628C110.939 23.044 111.263 21.64 111.911 20.416C112.559 19.168 113.591 18.196 115.007 17.5C116.423 16.804 118.283 16.456 120.587 16.456C123.947 16.456 126.407 17.248 127.967 18.832C129.551 20.392 130.343 22.732 130.343 25.852V30.316C130.343 32.236 129.899 33.964 129.011 35.5C128.147 37.012 126.899 38.2 125.267 39.064C123.635 39.928 121.679 40.36 119.399 40.36ZM120.443 27.544C121.043 27.544 121.655 27.436 122.279 27.22C122.903 27.004 123.479 26.74 124.007 26.428V24.772C124.007 23.548 123.719 22.66 123.143 22.108C122.591 21.532 121.715 21.244 120.515 21.244C119.339 21.244 118.451 21.52 117.851 22.072C117.275 22.624 116.987 23.392 116.987 24.376C116.987 25.384 117.239 26.164 117.743 26.716C118.247 27.268 119.147 27.544 120.443 27.544Z" fill="#FFFEFE"/>
<path d="M62.5137 40H59.5137V43H62.5137V40ZM62.5137 23.08H65.5137V19.598L62.0701 20.113L62.5137 23.08ZM58.6617 23.656H55.6617V27.138L59.1054 26.623L58.6617 23.656ZM58.6617 18.004L58.229 15.0354L55.6617 15.4096V18.004H58.6617ZM69.2817 16.456H72.2817V12.987L68.849 13.4874L69.2817 16.456ZM69.2817 40V43H72.2817V40H69.2817ZM65.5137 40V23.08H59.5137V40H65.5137ZM62.0701 20.113L58.2181 20.689L59.1054 26.623L62.9574 26.047L62.0701 20.113ZM61.6617 23.656V18.004H55.6617V23.656H61.6617ZM59.0944 20.9726L69.7144 19.4246L68.849 13.4874L58.229 15.0354L59.0944 20.9726ZM66.2817 16.456V40H72.2817V16.456H66.2817ZM69.2817 37H62.5137V43H69.2817V37ZM76.8862 40.144L77.3312 37.1772L77.2995 37.1724L77.2676 37.1684L76.8862 40.144ZM74.1142 39.46H71.1142V41.5519L73.077 42.275L74.1142 39.46ZM74.1142 34.204L75.2959 31.4466L71.1142 29.6544V34.204H74.1142ZM76.6702 34.96L76.177 37.9192L76.1899 37.9213L76.6702 34.96ZM83.5822 34.168L85.424 36.5361L85.424 36.5361L83.5822 34.168ZM84.8782 31.072H87.8782V25.5902L83.261 28.5452L84.8782 31.072ZM82.5742 32.008L81.829 29.102L81.8198 29.1044L81.8107 29.1068L82.5742 32.008ZM73.7542 30.352L71.5946 32.4344L71.6042 32.4443L71.6138 32.4541L73.7542 30.352ZM72.7822 20.416L75.4335 21.8197L75.4391 21.8091L75.4446 21.7984L72.7822 20.416ZM75.8782 17.5L77.2015 20.1923L77.2015 20.1923L75.8782 17.5ZM88.8382 18.832L86.7007 20.9371L86.7168 20.9534L86.7331 20.9695L88.8382 18.832ZM89.8822 35.5L87.285 33.9985L87.2812 34.005L87.2774 34.0116L89.8822 35.5ZM86.1382 39.064L84.7345 36.4126L84.7345 36.4126L86.1382 39.064ZM83.1502 27.22L82.1688 24.385L82.1688 24.385L83.1502 27.22ZM84.8782 26.428L86.4043 29.0108L87.8782 28.1399V26.428H84.8782ZM84.0142 22.108L81.8482 24.1837L81.8924 24.2298L81.9384 24.274L84.0142 22.108ZM78.7222 22.072L76.691 19.8642L76.6685 19.8849L76.6464 19.906L78.7222 22.072ZM78.6142 26.716L80.8296 24.6932L80.8296 24.6932L78.6142 26.716ZM80.2702 37.36C79.0771 37.36 78.1045 37.2932 77.3312 37.1772L76.4411 43.1108C77.5879 43.2828 78.8712 43.36 80.2702 43.36V37.36ZM77.2676 37.1684C76.5622 37.0779 75.8578 36.9053 75.1513 36.645L73.077 42.275C74.1945 42.6867 75.3382 42.9701 76.5047 43.1196L77.2676 37.1684ZM77.1142 39.46V34.204H71.1142V39.46H77.1142ZM72.9324 36.9614C73.9835 37.4119 75.0661 37.734 76.177 37.9192L77.1634 32.0008C76.5462 31.898 75.9249 31.7161 75.2959 31.4466L72.9324 36.9614ZM76.1899 37.9213C77.2645 38.0956 78.4121 38.176 79.6222 38.176V32.176C78.6722 32.176 77.8518 32.1124 77.1504 31.9987L76.1899 37.9213ZM79.6222 38.176C81.6813 38.176 83.7945 37.8034 85.424 36.5361L81.7403 31.7999C81.6418 31.8766 81.115 32.176 79.6222 32.176V38.176ZM85.424 36.5361C86.8794 35.4041 87.8782 33.7811 87.8782 31.756H81.8782C81.8782 31.7571 81.8783 31.7396 81.8856 31.7104C81.8929 31.6808 81.9033 31.6563 81.9115 31.6411C81.9288 31.6088 81.9068 31.6705 81.7403 31.7999L85.424 36.5361ZM87.8782 31.756V31.072H81.8782V31.756H87.8782ZM83.261 28.5452C83.0062 28.7082 82.5585 28.915 81.829 29.102L83.3193 34.914C84.4618 34.621 85.5501 34.2038 86.4953 33.5988L83.261 28.5452ZM81.8107 29.1068C81.102 29.2933 80.509 29.368 80.0182 29.368V35.368C81.1113 35.368 82.2223 35.2027 83.3376 34.9092L81.8107 29.1068ZM80.0182 29.368C77.5572 29.368 76.4165 28.7814 75.8945 28.2499L71.6138 32.4541C73.7318 34.6106 76.7671 35.368 80.0182 35.368V29.368ZM75.9137 28.2696C75.3134 27.647 74.8102 26.5824 74.8102 24.628H68.8102C68.8102 27.6176 69.6029 30.369 71.5946 32.4344L75.9137 28.2696ZM74.8102 24.628C74.8102 23.4624 75.0455 22.5526 75.4335 21.8197L70.1308 19.0123C69.2228 20.7274 68.8102 22.6256 68.8102 24.628H74.8102ZM75.4446 21.7984C75.7619 21.1874 76.2868 20.6419 77.2015 20.1923L74.5548 14.8077C72.6375 15.7501 71.0984 17.1486 70.1197 19.0336L75.4446 21.7984ZM77.2015 20.1923C78.0606 19.7701 79.4179 19.456 81.4582 19.456V13.456C78.8904 13.456 76.5278 13.8379 74.5548 14.8077L77.2015 20.1923ZM81.4582 19.456C84.4203 19.456 85.9368 20.1614 86.7007 20.9371L90.9756 16.7269C88.6195 14.3346 85.216 13.456 81.4582 13.456V19.456ZM86.7331 20.9695C87.5461 21.7702 88.2142 23.2061 88.2142 25.852H94.2142C94.2142 22.2579 93.2982 19.0138 90.9432 16.6945L86.7331 20.9695ZM88.2142 25.852V30.316H94.2142V25.852H88.2142ZM88.2142 30.316C88.2142 31.7535 87.8876 32.9561 87.285 33.9985L92.4794 37.0015C93.6527 34.9719 94.2142 32.7185 94.2142 30.316H88.2142ZM87.2774 34.0116C86.7128 34.9997 85.8958 35.7978 84.7345 36.4126L87.5418 41.7154C89.6445 40.6022 91.3235 39.0243 92.4869 36.9884L87.2774 34.0116ZM84.7345 36.4126C83.6249 37 82.174 37.36 80.2702 37.36V43.36C82.9264 43.36 85.3874 42.856 87.5418 41.7154L84.7345 36.4126ZM81.3142 30.544C82.28 30.544 83.2234 30.3693 84.1315 30.055L82.1688 24.385C81.8289 24.5027 81.5483 24.544 81.3142 24.544V30.544ZM84.1315 30.055C84.9307 29.7783 85.691 29.4323 86.4043 29.0108L83.352 23.8452C83.0093 24.0477 82.6176 24.2297 82.1688 24.385L84.1315 30.055ZM87.8782 26.428V24.772H81.8782V26.428H87.8782ZM87.8782 24.772C87.8782 23.1608 87.508 21.3011 86.0899 19.942L81.9384 24.274C81.8122 24.153 81.7913 24.0605 81.8085 24.1135C81.8307 24.1821 81.8782 24.3823 81.8782 24.772H87.8782ZM86.1801 20.0323C84.8306 18.6241 82.9943 18.244 81.3862 18.244V24.244C81.7584 24.244 81.946 24.2901 82.0062 24.3099C82.0505 24.3245 81.9618 24.3023 81.8482 24.1837L86.1801 20.0323ZM81.3862 18.244C79.7877 18.244 78.0473 18.6164 76.691 19.8642L80.7533 24.2798C80.6833 24.3442 80.6491 24.3405 80.7286 24.3158C80.8197 24.2875 81.0241 24.244 81.3862 24.244V18.244ZM76.6464 19.906C75.3474 21.1509 74.8582 22.7781 74.8582 24.376H80.8582C80.8582 24.1738 80.8879 24.1027 80.8831 24.1154C80.8806 24.1221 80.872 24.1423 80.8543 24.1695C80.8363 24.1969 80.8161 24.2205 80.7979 24.238L76.6464 19.906ZM74.8582 24.376C74.8582 25.8677 75.2361 27.4655 76.3987 28.7388L80.8296 24.6932C80.8939 24.7636 80.9088 24.8162 80.9019 24.7947C80.8913 24.762 80.8582 24.636 80.8582 24.376H74.8582ZM76.3987 28.7388C77.7713 30.2422 79.7579 30.544 81.3142 30.544V24.544C80.8606 24.544 80.6271 24.4935 80.5467 24.4688C80.4782 24.4478 80.6373 24.4826 80.8296 24.6932L76.3987 28.7388ZM94.2694 40L91.5074 38.8289L89.7389 43H94.2694V40ZM101.901 22L104.663 23.1711L106.432 19H101.901V22ZM92.6494 22H89.6494V25H92.6494V22ZM92.6494 16.816V13.816H89.6494V16.816H92.6494ZM109.497 16.816H112.497V13.816H109.497V16.816ZM109.497 20.704L112.26 21.8739L112.497 21.3131V20.704H109.497ZM101.325 40V43H103.313L104.088 41.1699L101.325 40ZM97.0314 41.1711L104.663 23.1711L99.1394 20.8289L91.5074 38.8289L97.0314 41.1711ZM101.901 19H92.6494V25H101.901V19ZM95.6494 22V16.816H89.6494V22H95.6494ZM92.6494 19.816H109.497V13.816H92.6494V19.816ZM106.497 16.816V20.704H112.497V16.816H106.497ZM106.735 19.5341L98.5629 38.8301L104.088 41.1699L112.26 21.8739L106.735 19.5341ZM101.325 37H94.2694V43H101.325V37ZM116.015 40.144L116.46 37.1772L116.428 37.1724L116.397 37.1684L116.015 40.144ZM113.243 39.46H110.243V41.5519L112.206 42.275L113.243 39.46ZM113.243 34.204L114.425 31.4466L110.243 29.6544V34.204H113.243ZM115.799 34.96L115.306 37.9192L115.319 37.9213L115.799 34.96ZM122.711 34.168L124.553 36.5361L124.553 36.5361L122.711 34.168ZM124.007 31.072H127.007V25.5902L122.39 28.5452L124.007 31.072ZM121.703 32.008L120.958 29.102L120.949 29.1044L120.94 29.1068L121.703 32.008ZM112.883 30.352L110.724 32.4344L110.733 32.4443L110.743 32.4541L112.883 30.352ZM111.911 20.416L114.562 21.8197L114.568 21.8091L114.574 21.7984L111.911 20.416ZM115.007 17.5L116.33 20.1923L116.33 20.1923L115.007 17.5ZM127.967 18.832L125.83 20.9371L125.846 20.9534L125.862 20.9695L127.967 18.832ZM129.011 35.5L126.414 33.9985L126.41 34.005L126.406 34.0116L129.011 35.5ZM125.267 39.064L123.863 36.4126L123.863 36.4126L125.267 39.064ZM122.279 27.22L121.298 24.385L121.298 24.385L122.279 27.22ZM124.007 26.428L125.533 29.0108L127.007 28.1399V26.428H124.007ZM123.143 22.108L120.977 24.1837L121.021 24.2298L121.067 24.274L123.143 22.108ZM117.851 22.072L115.82 19.8642L115.797 19.8849L115.775 19.906L117.851 22.072ZM117.743 26.716L119.959 24.6932L119.959 24.6932L117.743 26.716ZM119.399 37.36C118.206 37.36 117.233 37.2932 116.46 37.1772L115.57 43.1108C116.717 43.2828 118 43.36 119.399 43.36V37.36ZM116.397 37.1684C115.691 37.0779 114.987 36.9053 114.28 36.645L112.206 42.275C113.323 42.6867 114.467 42.9701 115.634 43.1196L116.397 37.1684ZM116.243 39.46V34.204H110.243V39.46H116.243ZM112.061 36.9614C113.112 37.4119 114.195 37.734 115.306 37.9192L116.292 32.0008C115.675 31.898 115.054 31.7161 114.425 31.4466L112.061 36.9614ZM115.319 37.9213C116.393 38.0956 117.541 38.176 118.751 38.176V32.176C117.801 32.176 116.981 32.1124 116.279 31.9987L115.319 37.9213ZM118.751 38.176C120.81 38.176 122.923 37.8034 124.553 36.5361L120.869 31.7999C120.771 31.8766 120.244 32.176 118.751 32.176V38.176ZM124.553 36.5361C126.008 35.4041 127.007 33.7811 127.007 31.756H121.007C121.007 31.7571 121.007 31.7396 121.014 31.7104C121.022 31.6808 121.032 31.6563 121.04 31.6411C121.058 31.6088 121.036 31.6705 120.869 31.7999L124.553 36.5361ZM127.007 31.756V31.072H121.007V31.756H127.007ZM122.39 28.5452C122.135 28.7082 121.687 28.915 120.958 29.102L122.448 34.914C123.591 34.621 124.679 34.2038 125.624 33.5988L122.39 28.5452ZM120.94 29.1068C120.231 29.2933 119.638 29.368 119.147 29.368V35.368C120.24 35.368 121.351 35.2027 122.467 34.9092L120.94 29.1068ZM119.147 29.368C116.686 29.368 115.545 28.7814 115.023 28.2499L110.743 32.4541C112.861 34.6106 115.896 35.368 119.147 35.368V29.368ZM115.043 28.2696C114.442 27.647 113.939 26.5824 113.939 24.628H107.939C107.939 27.6176 108.732 30.369 110.724 32.4344L115.043 28.2696ZM113.939 24.628C113.939 23.4624 114.174 22.5526 114.562 21.8197L109.26 19.0123C108.352 20.7274 107.939 22.6256 107.939 24.628H113.939ZM114.574 21.7984C114.891 21.1874 115.416 20.6419 116.33 20.1923L113.684 14.8077C111.766 15.7501 110.227 17.1486 109.249 19.0336L114.574 21.7984ZM116.33 20.1923C117.189 19.7701 118.547 19.456 120.587 19.456V13.456C118.019 13.456 115.657 13.8379 113.684 14.8077L116.33 20.1923ZM120.587 19.456C123.549 19.456 125.066 20.1614 125.83 20.9371L130.105 16.7269C127.748 14.3346 124.345 13.456 120.587 13.456V19.456ZM125.862 20.9695C126.675 21.7702 127.343 23.2061 127.343 25.852H133.343C133.343 22.2579 132.427 19.0138 130.072 16.6945L125.862 20.9695ZM127.343 25.852V30.316H133.343V25.852H127.343ZM127.343 30.316C127.343 31.7535 127.016 32.9561 126.414 33.9985L131.608 37.0015C132.782 34.9719 133.343 32.7185 133.343 30.316H127.343ZM126.406 34.0116C125.842 34.9997 125.025 35.7978 123.863 36.4126L126.671 41.7154C128.773 40.6022 130.452 39.0243 131.616 36.9884L126.406 34.0116ZM123.863 36.4126C122.754 37 121.303 37.36 119.399 37.36V43.36C122.055 43.36 124.516 42.856 126.671 41.7154L123.863 36.4126ZM120.443 30.544C121.409 30.544 122.352 30.3693 123.26 30.055L121.298 24.385C120.958 24.5027 120.677 24.544 120.443 24.544V30.544ZM123.26 30.055C124.06 29.7783 124.82 29.4323 125.533 29.0108L122.481 23.8452C122.138 24.0477 121.747 24.2297 121.298 24.385L123.26 30.055ZM127.007 26.428V24.772H121.007V26.428H127.007ZM127.007 24.772C127.007 23.1608 126.637 21.3011 125.219 19.942L121.067 24.274C120.941 24.153 120.92 24.0605 120.937 24.1135C120.96 24.1821 121.007 24.3823 121.007 24.772H127.007ZM125.309 20.0323C123.96 18.6241 122.123 18.244 120.515 18.244V24.244C120.887 24.244 121.075 24.2901 121.135 24.3099C121.179 24.3245 121.091 24.3023 120.977 24.1837L125.309 20.0323ZM120.515 18.244C118.917 18.244 117.176 18.6164 115.82 19.8642L119.882 24.2798C119.812 24.3442 119.778 24.3405 119.857 24.3158C119.949 24.2875 120.153 24.244 120.515 24.244V18.244ZM115.775 19.906C114.476 21.1509 113.987 22.7781 113.987 24.376H119.987C119.987 24.1738 120.017 24.1027 120.012 24.1154C120.01 24.1221 120.001 24.1423 119.983 24.1695C119.965 24.1969 119.945 24.2205 119.927 24.238L115.775 19.906ZM113.987 24.376C113.987 25.8677 114.365 27.4655 115.528 28.7388L119.959 24.6932C120.023 24.7636 120.038 24.8162 120.031 24.7947C120.02 24.762 119.987 24.636 119.987 24.376H113.987ZM115.528 28.7388C116.9 30.2422 118.887 30.544 120.443 30.544V24.544C119.989 24.544 119.756 24.4935 119.676 24.4688C119.607 24.4478 119.766 24.4826 119.959 24.6932L115.528 28.7388Z" fill="#302D4A" mask="url(#path-2-outside-1_65_5)"/>
</svg>
