<svg width="188" height="53" viewBox="0 0 188 53" fill="none" xmlns="http://www.w3.org/2000/svg">
<rect width="188" height="53" rx="8" fill="#02DED8"/>
<mask id="path-2-outside-1_65_5" maskUnits="userSpaceOnUse" x="54" y="12" width="81" height="32" fill="black">
<rect fill="white" x="54" y="12" width="81" height="32"/>
<path d="M61.4766 40V23.08L57.6246 23.656V18.004L68.2446 16.456V40H61.4766ZM79.233 40.36C77.937 40.36 76.809 40.288 75.849 40.144C74.913 40.024 73.989 39.796 73.077 39.46V34.204C73.917 34.564 74.769 34.816 75.633 34.96C76.521 35.104 77.505 35.176 78.585 35.176C80.361 35.176 81.681 34.84 82.545 34.168C83.409 33.496 83.841 32.692 83.841 31.756V31.072C83.241 31.456 82.473 31.768 81.537 32.008C80.625 32.248 79.773 32.368 78.981 32.368C76.125 32.368 74.037 31.696 72.717 30.352C71.421 29.008 70.773 27.1 70.773 24.628C70.773 23.044 71.097 21.64 71.745 20.416C72.393 19.168 73.425 18.196 74.841 17.5C76.257 16.804 78.117 16.456 80.421 16.456C83.781 16.456 86.241 17.248 87.801 18.832C89.385 20.392 90.177 22.732 90.177 25.852V30.316C90.177 32.236 89.733 33.964 88.845 35.5C87.981 37.012 86.733 38.2 85.101 39.064C83.469 39.928 81.513 40.36 79.233 40.36ZM80.277 27.544C80.877 27.544 81.489 27.436 82.113 27.22C82.737 27.004 83.313 26.74 83.841 26.428V24.772C83.841 23.548 83.553 22.66 82.977 22.108C82.425 21.532 81.549 21.244 80.349 21.244C79.173 21.244 78.285 21.52 77.685 22.072C77.109 22.624 76.821 23.392 76.821 24.376C76.821 25.384 77.073 26.164 77.577 26.716C78.081 27.268 78.981 27.544 80.277 27.544ZM102.016 40.36C98.5603 40.36 96.0163 39.76 94.3843 38.56C92.7763 37.36 91.9723 35.596 91.9723 33.268C91.9723 32.14 92.2363 31.096 92.7643 30.136C93.3163 29.176 94.0603 28.468 94.9963 28.012C94.1803 27.508 93.5683 26.86 93.1603 26.068C92.7523 25.276 92.5483 24.436 92.5483 23.548C92.5483 21.388 93.2923 19.672 94.7803 18.4C96.2683 17.104 98.6803 16.456 102.016 16.456C104.32 16.456 106.168 16.744 107.56 17.32C108.952 17.896 109.96 18.724 110.584 19.804C111.232 20.86 111.556 22.108 111.556 23.548C111.556 24.436 111.352 25.3 110.944 26.14C110.536 26.98 109.9 27.664 109.036 28.192C111.1 29.224 112.132 30.916 112.132 33.268C112.132 35.596 111.316 37.36 109.684 38.56C108.052 39.76 105.496 40.36 102.016 40.36ZM102.916 26.32C103.684 26.056 104.236 25.732 104.572 25.348C104.932 24.964 105.112 24.412 105.112 23.692C105.112 22.132 104.08 21.352 102.016 21.352C99.9763 21.352 98.9563 22.132 98.9563 23.692C98.9563 24.916 99.6043 25.66 100.9 25.924L102.916 26.32ZM102.016 35.5C103.288 35.5 104.212 35.308 104.788 34.924C105.388 34.516 105.688 33.916 105.688 33.124C105.688 32.428 105.496 31.9 105.112 31.54C104.728 31.18 104.092 30.904 103.204 30.712L100.756 30.208C100.036 30.376 99.4603 30.664 99.0283 31.072C98.5963 31.48 98.3803 32.092 98.3803 32.908C98.3803 34.636 99.5923 35.5 102.016 35.5ZM121.541 40.36C120.869 40.36 120.053 40.3 119.093 40.18C118.133 40.084 117.185 39.94 116.249 39.748C115.337 39.556 114.569 39.34 113.945 39.1V33.7C114.977 34.156 116.081 34.492 117.257 34.708C118.433 34.9 119.501 34.996 120.461 34.996C121.805 34.996 122.801 34.828 123.449 34.492C124.121 34.156 124.457 33.532 124.457 32.62C124.457 31.276 123.401 30.604 121.289 30.604H117.365L117.797 26.068H121.073C122.129 26.068 122.885 25.9 123.341 25.564C123.797 25.228 124.025 24.688 124.025 23.944C124.025 23.248 123.725 22.72 123.125 22.36C122.549 22 121.601 21.82 120.281 21.82C119.225 21.82 118.157 21.94 117.077 22.18C115.997 22.42 115.073 22.732 114.305 23.116V17.752C115.193 17.392 116.297 17.092 117.617 16.852C118.937 16.588 120.257 16.456 121.577 16.456C123.593 16.456 125.297 16.744 126.689 17.32C128.081 17.896 129.137 18.688 129.857 19.696C130.577 20.704 130.937 21.856 130.937 23.152C130.937 24.256 130.721 25.264 130.289 26.176C129.881 27.088 129.269 27.808 128.453 28.336C130.397 29.152 131.369 30.772 131.369 33.196C131.369 34.852 130.937 36.208 130.073 37.264C129.233 38.32 128.069 39.1 126.581 39.604C125.117 40.108 123.437 40.36 121.541 40.36Z"/>
</mask>
<path d="M61.4766 40V23.08L57.6246 23.656V18.004L68.2446 16.456V40H61.4766ZM79.233 40.36C77.937 40.36 76.809 40.288 75.849 40.144C74.913 40.024 73.989 39.796 73.077 39.46V34.204C73.917 34.564 74.769 34.816 75.633 34.96C76.521 35.104 77.505 35.176 78.585 35.176C80.361 35.176 81.681 34.84 82.545 34.168C83.409 33.496 83.841 32.692 83.841 31.756V31.072C83.241 31.456 82.473 31.768 81.537 32.008C80.625 32.248 79.773 32.368 78.981 32.368C76.125 32.368 74.037 31.696 72.717 30.352C71.421 29.008 70.773 27.1 70.773 24.628C70.773 23.044 71.097 21.64 71.745 20.416C72.393 19.168 73.425 18.196 74.841 17.5C76.257 16.804 78.117 16.456 80.421 16.456C83.781 16.456 86.241 17.248 87.801 18.832C89.385 20.392 90.177 22.732 90.177 25.852V30.316C90.177 32.236 89.733 33.964 88.845 35.5C87.981 37.012 86.733 38.2 85.101 39.064C83.469 39.928 81.513 40.36 79.233 40.36ZM80.277 27.544C80.877 27.544 81.489 27.436 82.113 27.22C82.737 27.004 83.313 26.74 83.841 26.428V24.772C83.841 23.548 83.553 22.66 82.977 22.108C82.425 21.532 81.549 21.244 80.349 21.244C79.173 21.244 78.285 21.52 77.685 22.072C77.109 22.624 76.821 23.392 76.821 24.376C76.821 25.384 77.073 26.164 77.577 26.716C78.081 27.268 78.981 27.544 80.277 27.544ZM102.016 40.36C98.5603 40.36 96.0163 39.76 94.3843 38.56C92.7763 37.36 91.9723 35.596 91.9723 33.268C91.9723 32.14 92.2363 31.096 92.7643 30.136C93.3163 29.176 94.0603 28.468 94.9963 28.012C94.1803 27.508 93.5683 26.86 93.1603 26.068C92.7523 25.276 92.5483 24.436 92.5483 23.548C92.5483 21.388 93.2923 19.672 94.7803 18.4C96.2683 17.104 98.6803 16.456 102.016 16.456C104.32 16.456 106.168 16.744 107.56 17.32C108.952 17.896 109.96 18.724 110.584 19.804C111.232 20.86 111.556 22.108 111.556 23.548C111.556 24.436 111.352 25.3 110.944 26.14C110.536 26.98 109.9 27.664 109.036 28.192C111.1 29.224 112.132 30.916 112.132 33.268C112.132 35.596 111.316 37.36 109.684 38.56C108.052 39.76 105.496 40.36 102.016 40.36ZM102.916 26.32C103.684 26.056 104.236 25.732 104.572 25.348C104.932 24.964 105.112 24.412 105.112 23.692C105.112 22.132 104.08 21.352 102.016 21.352C99.9763 21.352 98.9563 22.132 98.9563 23.692C98.9563 24.916 99.6043 25.66 100.9 25.924L102.916 26.32ZM102.016 35.5C103.288 35.5 104.212 35.308 104.788 34.924C105.388 34.516 105.688 33.916 105.688 33.124C105.688 32.428 105.496 31.9 105.112 31.54C104.728 31.18 104.092 30.904 103.204 30.712L100.756 30.208C100.036 30.376 99.4603 30.664 99.0283 31.072C98.5963 31.48 98.3803 32.092 98.3803 32.908C98.3803 34.636 99.5923 35.5 102.016 35.5ZM121.541 40.36C120.869 40.36 120.053 40.3 119.093 40.18C118.133 40.084 117.185 39.94 116.249 39.748C115.337 39.556 114.569 39.34 113.945 39.1V33.7C114.977 34.156 116.081 34.492 117.257 34.708C118.433 34.9 119.501 34.996 120.461 34.996C121.805 34.996 122.801 34.828 123.449 34.492C124.121 34.156 124.457 33.532 124.457 32.62C124.457 31.276 123.401 30.604 121.289 30.604H117.365L117.797 26.068H121.073C122.129 26.068 122.885 25.9 123.341 25.564C123.797 25.228 124.025 24.688 124.025 23.944C124.025 23.248 123.725 22.72 123.125 22.36C122.549 22 121.601 21.82 120.281 21.82C119.225 21.82 118.157 21.94 117.077 22.18C115.997 22.42 115.073 22.732 114.305 23.116V17.752C115.193 17.392 116.297 17.092 117.617 16.852C118.937 16.588 120.257 16.456 121.577 16.456C123.593 16.456 125.297 16.744 126.689 17.32C128.081 17.896 129.137 18.688 129.857 19.696C130.577 20.704 130.937 21.856 130.937 23.152C130.937 24.256 130.721 25.264 130.289 26.176C129.881 27.088 129.269 27.808 128.453 28.336C130.397 29.152 131.369 30.772 131.369 33.196C131.369 34.852 130.937 36.208 130.073 37.264C129.233 38.32 128.069 39.1 126.581 39.604C125.117 40.108 123.437 40.36 121.541 40.36Z" fill="#FFFEFE"/>
<path d="M61.4766 40H58.4766V43H61.4766V40ZM61.4766 23.08H64.4766V19.598L61.0329 20.113L61.4766 23.08ZM57.6246 23.656H54.6246V27.138L58.0683 26.623L57.6246 23.656ZM57.6246 18.004L57.1919 15.0354L54.6246 15.4096V18.004H57.6246ZM68.2446 16.456H71.2446V12.987L67.8119 13.4874L68.2446 16.456ZM68.2446 40V43H71.2446V40H68.2446ZM64.4766 40V23.08H58.4766V40H64.4766ZM61.0329 20.113L57.1809 20.689L58.0683 26.623L61.9203 26.047L61.0329 20.113ZM60.6246 23.656V18.004H54.6246V23.656H60.6246ZM58.0573 20.9726L68.6773 19.4246L67.8119 13.4874L57.1919 15.0354L58.0573 20.9726ZM65.2446 16.456V40H71.2446V16.456H65.2446ZM68.2446 37H61.4766V43H68.2446V37ZM75.849 40.144L76.2941 37.1772L76.2624 37.1724L76.2305 37.1684L75.849 40.144ZM73.077 39.46H70.077V41.5519L72.0399 42.275L73.077 39.46ZM73.077 34.204L74.2588 31.4466L70.077 29.6544V34.204H73.077ZM75.633 34.96L75.1398 37.9192L75.1528 37.9213L75.633 34.96ZM82.545 34.168L84.3869 36.5361L84.3869 36.5361L82.545 34.168ZM83.841 31.072H86.841V25.5902L82.2239 28.5452L83.841 31.072ZM81.537 32.008L80.7919 29.102L80.7827 29.1044L80.7736 29.1068L81.537 32.008ZM72.717 30.352L70.5575 32.4344L70.5671 32.4443L70.5767 32.4541L72.717 30.352ZM71.745 20.416L74.3964 21.8197L74.402 21.8091L74.4075 21.7984L71.745 20.416ZM74.841 17.5L76.1644 20.1923L76.1644 20.1923L74.841 17.5ZM87.801 18.832L85.6636 20.9371L85.6797 20.9534L85.696 20.9695L87.801 18.832ZM88.845 35.5L86.2478 33.9985L86.2441 34.005L86.2403 34.0116L88.845 35.5ZM85.101 39.064L83.6974 36.4126L83.6974 36.4126L85.101 39.064ZM82.113 27.22L81.1317 24.385L81.1317 24.385L82.113 27.22ZM83.841 26.428L85.3672 29.0108L86.841 28.1399V26.428H83.841ZM82.977 22.108L80.8111 24.1837L80.8552 24.2298L80.9013 24.274L82.977 22.108ZM77.685 22.072L75.6539 19.8642L75.6314 19.8849L75.6093 19.906L77.685 22.072ZM77.577 26.716L79.7925 24.6932L79.7925 24.6932L77.577 26.716ZM79.233 37.36C78.04 37.36 77.0674 37.2932 76.2941 37.1772L75.404 43.1108C76.5507 43.2828 77.8341 43.36 79.233 43.36V37.36ZM76.2305 37.1684C75.525 37.0779 74.8207 36.9053 74.1142 36.645L72.0399 42.275C73.1574 42.6867 74.301 42.9701 75.4676 43.1196L76.2305 37.1684ZM76.077 39.46V34.204H70.077V39.46H76.077ZM71.8953 36.9614C72.9463 37.4119 74.029 37.734 75.1398 37.9192L76.1262 32.0008C75.5091 31.898 74.8877 31.7161 74.2588 31.4466L71.8953 36.9614ZM75.1528 37.9213C76.2274 38.0956 77.375 38.176 78.585 38.176V32.176C77.6351 32.176 76.8147 32.1124 76.1133 31.9987L75.1528 37.9213ZM78.585 38.176C80.6442 38.176 82.7574 37.8034 84.3869 36.5361L80.7032 31.7999C80.6047 31.8766 80.0779 32.176 78.585 32.176V38.176ZM84.3869 36.5361C85.8423 35.4041 86.841 33.7811 86.841 31.756H80.841C80.841 31.7571 80.8412 31.7396 80.8484 31.7104C80.8558 31.6808 80.8662 31.6563 80.8744 31.6411C80.8917 31.6088 80.8697 31.6705 80.7032 31.7999L84.3869 36.5361ZM86.841 31.756V31.072H80.841V31.756H86.841ZM82.2239 28.5452C81.9691 28.7082 81.5214 28.915 80.7919 29.102L82.2822 34.914C83.4247 34.621 84.513 34.2038 85.4582 33.5988L82.2239 28.5452ZM80.7736 29.1068C80.0649 29.2933 79.4719 29.368 78.981 29.368V35.368C80.0742 35.368 81.1852 35.2027 82.3005 34.9092L80.7736 29.1068ZM78.981 29.368C76.5201 29.368 75.3794 28.7814 74.8574 28.2499L70.5767 32.4541C72.6947 34.6106 75.73 35.368 78.981 35.368V29.368ZM74.8766 28.2696C74.2763 27.647 73.773 26.5824 73.773 24.628H67.773C67.773 27.6176 68.5658 30.369 70.5575 32.4344L74.8766 28.2696ZM73.773 24.628C73.773 23.4624 74.0084 22.5526 74.3964 21.8197L69.0937 19.0123C68.1857 20.7274 67.773 22.6256 67.773 24.628H73.773ZM74.4075 21.7984C74.7248 21.1874 75.2497 20.6419 76.1644 20.1923L73.5177 14.8077C71.6004 15.7501 70.0613 17.1486 69.0826 19.0336L74.4075 21.7984ZM76.1644 20.1923C77.0235 19.7701 78.3808 19.456 80.421 19.456V13.456C77.8533 13.456 75.4906 13.8379 73.5177 14.8077L76.1644 20.1923ZM80.421 19.456C83.3832 19.456 84.8997 20.1614 85.6636 20.9371L89.9385 16.7269C87.5824 14.3346 84.1789 13.456 80.421 13.456V19.456ZM85.696 20.9695C86.509 21.7702 87.177 23.2061 87.177 25.852H93.177C93.177 22.2579 92.2611 19.0138 89.9061 16.6945L85.696 20.9695ZM87.177 25.852V30.316H93.177V25.852H87.177ZM87.177 30.316C87.177 31.7535 86.8505 32.9561 86.2478 33.9985L91.4423 37.0015C92.6156 34.9719 93.177 32.7185 93.177 30.316H87.177ZM86.2403 34.0116C85.6757 34.9997 84.8587 35.7978 83.6974 36.4126L86.5047 41.7154C88.6074 40.6022 90.2864 39.0243 91.4498 36.9884L86.2403 34.0116ZM83.6974 36.4126C82.5878 37 81.1369 37.36 79.233 37.36V43.36C81.8892 43.36 84.3503 42.856 86.5047 41.7154L83.6974 36.4126ZM80.277 30.544C81.2429 30.544 82.1863 30.3693 83.0944 30.055L81.1317 24.385C80.7918 24.5027 80.5112 24.544 80.277 24.544V30.544ZM83.0944 30.055C83.8936 29.7783 84.6539 29.4323 85.3672 29.0108L82.3149 23.8452C81.9722 24.0477 81.5805 24.2297 81.1317 24.385L83.0944 30.055ZM86.841 26.428V24.772H80.841V26.428H86.841ZM86.841 24.772C86.841 23.1608 86.4709 21.3011 85.0528 19.942L80.9013 24.274C80.7751 24.153 80.7542 24.0605 80.7714 24.1135C80.7936 24.1821 80.841 24.3823 80.841 24.772H86.841ZM85.143 20.0323C83.7935 18.6241 81.9572 18.244 80.349 18.244V24.244C80.7212 24.244 80.9089 24.2901 80.9691 24.3099C81.0134 24.3245 80.9247 24.3023 80.8111 24.1837L85.143 20.0323ZM80.349 18.244C78.7505 18.244 77.0102 18.6164 75.6539 19.8642L79.7162 24.2798C79.6462 24.3442 79.612 24.3405 79.6915 24.3158C79.7826 24.2875 79.987 24.244 80.349 24.244V18.244ZM75.6093 19.906C74.3103 21.1509 73.821 22.7781 73.821 24.376H79.821C79.821 24.1738 79.8508 24.1027 79.846 24.1154C79.8435 24.1221 79.8349 24.1423 79.8172 24.1695C79.7992 24.1969 79.779 24.2205 79.7608 24.238L75.6093 19.906ZM73.821 24.376C73.821 25.8677 74.199 27.4655 75.3616 28.7388L79.7925 24.6932C79.8568 24.7636 79.8717 24.8162 79.8648 24.7947C79.8542 24.762 79.821 24.636 79.821 24.376H73.821ZM75.3616 28.7388C76.7342 30.2422 78.7208 30.544 80.277 30.544V24.544C79.8235 24.544 79.59 24.4935 79.5096 24.4688C79.4411 24.4478 79.6002 24.4826 79.7925 24.6932L75.3616 28.7388ZM94.3843 38.56L92.59 40.9643L92.5985 40.9707L92.6071 40.977L94.3843 38.56ZM92.7643 30.136L90.1635 28.6406L90.1493 28.6653L90.1356 28.6902L92.7643 30.136ZM94.9963 28.012L96.3102 30.709L101.208 28.3227L96.5727 25.4596L94.9963 28.012ZM93.1603 26.068L95.8272 24.6941L95.8272 24.6941L93.1603 26.068ZM94.7803 18.4L96.7296 20.6804L96.7402 20.6714L96.7506 20.6622L94.7803 18.4ZM107.56 17.32L108.707 14.5479L108.707 14.5479L107.56 17.32ZM110.584 19.804L107.987 21.3048L108.007 21.3392L108.027 21.373L110.584 19.804ZM110.944 26.14L113.643 27.4507L113.643 27.4507L110.944 26.14ZM109.036 28.192L107.472 25.6322L102.853 28.4546L107.695 30.8753L109.036 28.192ZM109.684 38.56L107.907 36.143L107.907 36.143L109.684 38.56ZM102.916 26.32L102.338 29.2637L103.129 29.4191L103.892 29.1571L102.916 26.32ZM104.572 25.348L102.384 23.2962L102.348 23.3337L102.315 23.3725L104.572 25.348ZM100.9 25.924L100.301 28.8636L100.312 28.8657L100.322 28.8677L100.9 25.924ZM104.788 34.924L106.452 37.4202L106.464 37.4125L106.475 37.4048L104.788 34.924ZM105.112 31.54L107.164 29.3514L107.164 29.3514L105.112 31.54ZM103.204 30.712L103.838 27.7798L103.824 27.7766L103.809 27.7736L103.204 30.712ZM100.756 30.208L101.361 27.2696L100.716 27.1368L100.075 27.2865L100.756 30.208ZM99.0283 31.072L101.088 33.253L101.088 33.253L99.0283 31.072ZM102.016 37.36C98.7938 37.36 97.0267 36.7793 96.1614 36.143L92.6071 40.977C95.0058 42.7407 98.3267 43.36 102.016 43.36V37.36ZM96.1785 36.1557C95.4577 35.6178 94.9723 34.8218 94.9723 33.268H88.9723C88.9723 36.3702 90.0948 39.1022 92.59 40.9643L96.1785 36.1557ZM94.9723 33.268C94.9723 32.6299 95.1159 32.0854 95.3929 31.5818L90.1356 28.6902C89.3566 30.1066 88.9723 31.65 88.9723 33.268H94.9723ZM95.365 31.6314C95.6379 31.1568 95.9487 30.8851 96.3102 30.709L93.6824 25.315C92.1719 26.0509 90.9946 27.1952 90.1635 28.6406L95.365 31.6314ZM96.5727 25.4596C96.1837 25.2193 95.9664 24.9644 95.8272 24.6941L90.4933 27.4419C91.1701 28.7556 92.1768 29.7967 93.4198 30.5644L96.5727 25.4596ZM95.8272 24.6941C95.6373 24.3256 95.5483 23.9564 95.5483 23.548H89.5483C89.5483 24.9156 89.8672 26.2264 90.4933 27.4419L95.8272 24.6941ZM95.5483 23.548C95.5483 22.163 95.9823 21.3192 96.7296 20.6804L92.8309 16.1196C90.6022 18.0248 89.5483 20.613 89.5483 23.548H95.5483ZM96.7506 20.6622C97.4238 20.076 98.9436 19.456 102.016 19.456V13.456C98.4169 13.456 95.1128 14.132 92.8099 16.1378L96.7506 20.6622ZM102.016 19.456C104.114 19.456 105.525 19.7246 106.413 20.092L108.707 14.5479C106.811 13.7634 104.527 13.456 102.016 13.456V19.456ZM106.413 20.092C107.325 20.4695 107.757 20.908 107.987 21.3048L113.182 18.3032C112.163 16.54 110.579 15.3225 108.707 14.5479L106.413 20.092ZM108.027 21.373C108.341 21.8847 108.556 22.5705 108.556 23.548H114.556C114.556 21.6455 114.123 19.8353 113.141 18.235L108.027 21.373ZM108.556 23.548C108.556 23.9585 108.466 24.3761 108.246 24.8293L113.643 27.4507C114.239 26.2239 114.556 24.9135 114.556 23.548H108.556ZM108.246 24.8293C108.11 25.1095 107.889 25.3772 107.472 25.6322L110.601 30.7518C111.911 29.9508 112.963 28.8505 113.643 27.4507L108.246 24.8293ZM107.695 30.8753C108.307 31.1816 108.62 31.5065 108.797 31.7971C108.976 32.0912 109.132 32.5392 109.132 33.268H115.132C115.132 31.6448 114.772 30.0708 113.919 28.6729C113.065 27.2715 111.829 26.2344 110.378 25.5087L107.695 30.8753ZM109.132 33.268C109.132 34.8046 108.648 35.5984 107.907 36.143L111.461 40.977C113.985 39.1216 115.132 36.3874 115.132 33.268H109.132ZM107.907 36.143C107.044 36.7774 105.268 37.36 102.016 37.36V43.36C105.724 43.36 109.06 42.7426 111.461 40.977L107.907 36.143ZM103.892 29.1571C104.89 28.8138 106.002 28.2693 106.83 27.3235L102.315 23.3725C102.405 23.2696 102.454 23.2531 102.388 23.2918C102.323 23.3299 102.184 23.3995 101.941 23.4829L103.892 29.1571ZM106.761 27.3998C107.809 26.2823 108.112 24.8899 108.112 23.692H102.112C102.112 23.8088 102.097 23.8023 102.125 23.7159C102.157 23.6174 102.233 23.4568 102.384 23.2962L106.761 27.3998ZM108.112 23.692C108.112 22.1887 107.571 20.6199 106.147 19.5437C104.882 18.5872 103.34 18.352 102.016 18.352V24.352C102.353 24.352 102.548 24.3848 102.638 24.4073C102.724 24.429 102.657 24.4271 102.529 24.3303C102.385 24.221 102.254 24.0595 102.174 23.8788C102.102 23.7157 102.112 23.6293 102.112 23.692H108.112ZM102.016 18.352C100.699 18.352 99.1604 18.5892 97.8989 19.5539C96.4851 20.635 95.9563 22.2016 95.9563 23.692H101.956C101.956 23.6251 101.967 23.7072 101.898 23.867C101.82 24.0446 101.691 24.2075 101.544 24.3201C101.412 24.4204 101.341 24.4252 101.419 24.4053C101.5 24.3844 101.688 24.352 102.016 24.352V18.352ZM95.9563 23.692C95.9563 24.8475 96.2737 26.0977 97.18 27.1383C98.0636 28.1528 99.2261 28.6446 100.301 28.8636L101.499 22.9844C101.278 22.9394 101.469 22.9272 101.705 23.1977C101.818 23.3281 101.89 23.4673 101.927 23.5817C101.962 23.6877 101.956 23.7355 101.956 23.692H95.9563ZM100.322 28.8677L102.338 29.2637L103.495 23.3763L101.479 22.9803L100.322 28.8677ZM102.016 38.5C103.454 38.5 105.12 38.3086 106.452 37.4202L103.124 32.4278C103.249 32.3445 103.267 32.3743 103.053 32.4187C102.847 32.4615 102.513 32.5 102.016 32.5V38.5ZM106.475 37.4048C107.981 36.3806 108.688 34.8022 108.688 33.124H102.688C102.688 33.138 102.687 33.0118 102.78 32.8264C102.878 32.6307 103.013 32.5033 103.101 32.4432L106.475 37.4048ZM108.688 33.124C108.688 31.8785 108.331 30.4451 107.164 29.3514L103.06 33.7286C102.886 33.5649 102.779 33.3793 102.725 33.2312C102.677 33.0987 102.688 33.0453 102.688 33.124H108.688ZM107.164 29.3514C106.191 28.4387 104.919 28.0135 103.838 27.7798L102.57 33.6442C102.878 33.7107 103.061 33.7751 103.153 33.815C103.249 33.8569 103.185 33.8457 103.06 33.7286L107.164 29.3514ZM103.809 27.7736L101.361 27.2696L100.151 33.1464L102.599 33.6504L103.809 27.7736ZM100.075 27.2865C98.9628 27.5459 97.8699 28.0395 96.9684 28.891L101.088 33.253C101.051 33.2885 101.11 33.2061 101.438 33.1295L100.075 27.2865ZM96.9684 28.891C95.739 30.0521 95.3803 31.5844 95.3803 32.908H101.38C101.38 32.7564 101.401 32.7503 101.371 32.8355C101.335 32.9369 101.25 33.1001 101.088 33.253L96.9684 28.891ZM95.3803 32.908C95.3803 34.5629 96.0168 36.2034 97.5478 37.2948C98.8919 38.253 100.539 38.5 102.016 38.5V32.5C101.579 32.5 101.291 32.4601 101.119 32.4193C100.949 32.3788 100.949 32.351 101.031 32.4092C101.131 32.4806 101.249 32.6077 101.325 32.7713C101.394 32.9191 101.38 32.9906 101.38 32.908H95.3803ZM119.093 40.18L119.465 37.2032L119.428 37.1986L119.391 37.1949L119.093 40.18ZM116.249 39.748L115.631 42.6836L115.638 42.6852L115.646 42.6868L116.249 39.748ZM113.945 39.1H110.945V41.1604L112.868 41.9L113.945 39.1ZM113.945 33.7L115.157 30.9559L110.945 29.0946V33.7H113.945ZM117.257 34.708L116.715 37.6586L116.744 37.664L116.774 37.6688L117.257 34.708ZM123.449 34.492L122.107 31.8087L122.088 31.8186L122.068 31.8287L123.449 34.492ZM117.365 30.604L114.378 30.3196L114.066 33.604H117.365V30.604ZM117.797 26.068V23.068H115.069L114.81 25.7836L117.797 26.068ZM123.125 22.36L121.535 24.904L121.558 24.9184L121.581 24.9325L123.125 22.36ZM117.077 22.18L116.426 19.2514L116.426 19.2514L117.077 22.18ZM114.305 23.116H111.305V27.9701L115.647 25.7993L114.305 23.116ZM114.305 17.752L113.178 14.9718L111.305 15.7311V17.752H114.305ZM117.617 16.852L118.154 19.8036L118.179 19.7989L118.205 19.7937L117.617 16.852ZM126.689 17.32L127.836 14.5479L127.836 14.5479L126.689 17.32ZM130.289 26.176L127.578 24.8917L127.564 24.9212L127.55 24.9509L130.289 26.176ZM128.453 28.336L126.823 25.8173L122.054 28.9035L127.292 31.1022L128.453 28.336ZM130.073 37.264L127.751 35.3643L127.738 35.3803L127.725 35.3964L130.073 37.264ZM126.581 39.604L125.619 36.7626L125.611 36.765L125.604 36.7674L126.581 39.604ZM121.541 37.36C121.034 37.36 120.35 37.3138 119.465 37.2032L118.721 43.1568C119.756 43.2862 120.704 43.36 121.541 43.36V37.36ZM119.391 37.1949C118.533 37.109 117.686 36.9804 116.852 36.8092L115.646 42.6868C116.684 42.8996 117.733 43.059 118.794 43.1651L119.391 37.1949ZM116.867 36.8124C116.055 36.6415 115.451 36.4652 115.022 36.3L112.868 41.9C113.686 42.2148 114.619 42.4705 115.631 42.6836L116.867 36.8124ZM116.945 39.1V33.7H110.945V39.1H116.945ZM112.732 36.4441C113.991 37.0004 115.322 37.4028 116.715 37.6586L117.799 31.7574C116.84 31.5812 115.962 31.3116 115.157 30.9559L112.732 36.4441ZM116.774 37.6688C118.073 37.8809 119.306 37.996 120.461 37.996V31.996C119.696 31.996 118.793 31.9191 117.74 31.7472L116.774 37.6688ZM120.461 37.996C121.945 37.996 123.531 37.8288 124.83 37.1553L122.068 31.8287C122.104 31.8099 122.016 31.8613 121.717 31.9118C121.427 31.9606 121.017 31.996 120.461 31.996V37.996ZM124.791 37.1753C125.644 36.7485 126.367 36.0841 126.846 35.1943C127.308 34.3376 127.457 33.4339 127.457 32.62H121.457C121.457 32.7181 121.438 32.5824 121.564 32.3497C121.627 32.2322 121.714 32.1159 121.821 32.0136C121.927 31.9125 122.03 31.8474 122.107 31.8087L124.791 37.1753ZM127.457 32.62C127.457 31.0129 126.743 29.5107 125.276 28.577C124.038 27.7898 122.567 27.604 121.289 27.604V33.604C121.667 33.604 121.912 33.6349 122.052 33.6647C122.195 33.695 122.167 33.7108 122.054 33.639C121.921 33.5543 121.737 33.3881 121.601 33.13C121.471 32.8811 121.457 32.6812 121.457 32.62H127.457ZM121.289 27.604H117.365V33.604H121.289V27.604ZM120.351 30.8884L120.783 26.3524L114.81 25.7836L114.378 30.3196L120.351 30.8884ZM117.797 29.068H121.073V23.068H117.797V29.068ZM121.073 29.068C122.291 29.068 123.865 28.9044 125.121 27.9792L121.561 23.1488C121.769 22.9957 121.892 22.9888 121.781 23.0134C121.678 23.0364 121.455 23.068 121.073 23.068V29.068ZM125.121 27.9792C126.574 26.9084 127.025 25.3143 127.025 23.944H121.025C121.025 24.019 121.012 23.9243 121.09 23.7401C121.178 23.5312 121.339 23.3123 121.561 23.1488L125.121 27.9792ZM127.025 23.944C127.025 22.1873 126.166 20.6861 124.668 19.7875L121.581 24.9325C121.507 24.8876 121.333 24.7575 121.192 24.508C121.049 24.2578 121.025 24.0386 121.025 23.944H127.025ZM124.715 19.816C123.391 18.9884 121.721 18.82 120.281 18.82V24.82C120.816 24.82 121.186 24.8575 121.422 24.9023C121.672 24.9498 121.665 24.9854 121.535 24.904L124.715 19.816ZM120.281 18.82C118.996 18.82 117.71 18.9662 116.426 19.2514L117.728 25.1086C118.604 24.9138 119.454 24.82 120.281 24.82V18.82ZM116.426 19.2514C115.172 19.5302 114.003 19.9128 112.963 20.4327L115.647 25.7993C116.143 25.5512 116.822 25.3098 117.728 25.1086L116.426 19.2514ZM117.305 23.116V17.752H111.305V23.116H117.305ZM115.432 20.5322C116.071 20.2732 116.962 20.0202 118.154 19.8036L117.08 13.9004C115.632 14.1638 114.315 14.5108 113.178 14.9718L115.432 20.5322ZM118.205 19.7937C119.335 19.5677 120.458 19.456 121.577 19.456V13.456C120.055 13.456 118.538 13.6083 117.029 13.9103L118.205 19.7937ZM121.577 19.456C123.325 19.456 124.614 19.7081 125.542 20.092L127.836 14.5479C125.98 13.7799 123.861 13.456 121.577 13.456V19.456ZM125.542 20.092C126.527 20.4998 127.087 20.9789 127.416 21.4397L132.298 17.9523C131.187 16.3971 129.634 15.2922 127.836 14.5479L125.542 20.092ZM127.416 21.4397C127.755 21.9144 127.937 22.4505 127.937 23.152H133.937C133.937 21.2615 133.399 19.4936 132.298 17.9523L127.416 21.4397ZM127.937 23.152C127.937 23.8541 127.802 24.4177 127.578 24.8917L133 27.4603C133.64 26.1103 133.937 24.6579 133.937 23.152H127.937ZM127.55 24.9509C127.372 25.3493 127.138 25.6135 126.823 25.8173L130.083 30.8547C131.4 30.0025 132.39 28.8267 133.027 27.4011L127.55 24.9509ZM127.292 31.1022C127.747 31.2932 127.948 31.5068 128.067 31.7065C128.205 31.9357 128.369 32.3764 128.369 33.196H134.369C134.369 31.5916 134.047 30.0103 133.212 28.6195C132.36 27.1992 131.103 26.1948 129.614 25.5698L127.292 31.1022ZM128.369 33.196C128.369 34.3128 128.088 34.952 127.751 35.3643L132.395 39.1637C133.785 37.464 134.369 35.3912 134.369 33.196H128.369ZM127.725 35.3964C127.3 35.9314 126.652 36.4124 125.619 36.7626L127.543 42.4454C129.486 41.7876 131.166 40.7086 132.421 39.1316L127.725 35.3964ZM125.604 36.7674C124.516 37.142 123.177 37.36 121.541 37.36V43.36C123.697 43.36 125.718 43.074 127.557 42.4406L125.604 36.7674Z" fill="#302D4A" mask="url(#path-2-outside-1_65_5)"/>
</svg>
