<svg width="188" height="53" viewBox="0 0 188 53" fill="none" xmlns="http://www.w3.org/2000/svg">
<rect width="188" height="53" rx="8" fill="#F90047"/>
<mask id="path-2-outside-1_65_5" maskUnits="userSpaceOnUse" x="53" y="12" width="83" height="32" fill="black">
<rect fill="white" x="53" y="12" width="83" height="32"/>
<path d="M60.4922 40V23.08L56.6402 23.656V18.004L67.2602 16.456V40H60.4922ZM78.2487 40.36C76.9527 40.36 75.8247 40.288 74.8647 40.144C73.9287 40.024 73.0047 39.796 72.0927 39.46V34.204C72.9327 34.564 73.7847 34.816 74.6487 34.96C75.5367 35.104 76.5207 35.176 77.6007 35.176C79.3767 35.176 80.6967 34.84 81.5607 34.168C82.4247 33.496 82.8567 32.692 82.8567 31.756V31.072C82.2567 31.456 81.4887 31.768 80.5527 32.008C79.6407 32.248 78.7887 32.368 77.9967 32.368C75.1407 32.368 73.0527 31.696 71.7327 30.352C70.4367 29.008 69.7887 27.1 69.7887 24.628C69.7887 23.044 70.1127 21.64 70.7607 20.416C71.4087 19.168 72.4407 18.196 73.8567 17.5C75.2727 16.804 77.1327 16.456 79.4367 16.456C82.7967 16.456 85.2567 17.248 86.8167 18.832C88.4007 20.392 89.1927 22.732 89.1927 25.852V30.316C89.1927 32.236 88.7487 33.964 87.8607 35.5C86.9967 37.012 85.7487 38.2 84.1167 39.064C82.4847 39.928 80.5287 40.36 78.2487 40.36ZM79.2927 27.544C79.8927 27.544 80.5047 27.436 81.1287 27.22C81.7527 27.004 82.3287 26.74 82.8567 26.428V24.772C82.8567 23.548 82.5687 22.66 81.9927 22.108C81.4407 21.532 80.5647 21.244 79.3647 21.244C78.1887 21.244 77.3007 21.52 76.7007 22.072C76.1247 22.624 75.8367 23.392 75.8367 24.376C75.8367 25.384 76.0887 26.164 76.5927 26.716C77.0967 27.268 77.9967 27.544 79.2927 27.544ZM101.032 40.36C97.5759 40.36 95.0319 39.76 93.3999 38.56C91.7919 37.36 90.9879 35.596 90.9879 33.268C90.9879 32.14 91.2519 31.096 91.7799 30.136C92.3319 29.176 93.0759 28.468 94.0119 28.012C93.1959 27.508 92.5839 26.86 92.1759 26.068C91.7679 25.276 91.5639 24.436 91.5639 23.548C91.5639 21.388 92.3079 19.672 93.7959 18.4C95.2839 17.104 97.6959 16.456 101.032 16.456C103.336 16.456 105.184 16.744 106.576 17.32C107.968 17.896 108.976 18.724 109.6 19.804C110.248 20.86 110.572 22.108 110.572 23.548C110.572 24.436 110.368 25.3 109.96 26.14C109.552 26.98 108.916 27.664 108.052 28.192C110.116 29.224 111.148 30.916 111.148 33.268C111.148 35.596 110.332 37.36 108.7 38.56C107.068 39.76 104.512 40.36 101.032 40.36ZM101.932 26.32C102.7 26.056 103.252 25.732 103.588 25.348C103.948 24.964 104.128 24.412 104.128 23.692C104.128 22.132 103.096 21.352 101.032 21.352C98.9919 21.352 97.9719 22.132 97.9719 23.692C97.9719 24.916 98.6199 25.66 99.9159 25.924L101.932 26.32ZM101.032 35.5C102.304 35.5 103.228 35.308 103.804 34.924C104.404 34.516 104.704 33.916 104.704 33.124C104.704 32.428 104.512 31.9 104.128 31.54C103.744 31.18 103.108 30.904 102.22 30.712L99.7719 30.208C99.0519 30.376 98.4759 30.664 98.0439 31.072C97.6119 31.48 97.3959 32.092 97.3959 32.908C97.3959 34.636 98.6079 35.5 101.032 35.5ZM121.421 40.36C120.125 40.36 118.997 40.288 118.037 40.144C117.101 40.024 116.177 39.796 115.265 39.46V34.204C116.105 34.564 116.957 34.816 117.821 34.96C118.709 35.104 119.693 35.176 120.773 35.176C122.549 35.176 123.869 34.84 124.733 34.168C125.597 33.496 126.029 32.692 126.029 31.756V31.072C125.429 31.456 124.661 31.768 123.725 32.008C122.813 32.248 121.961 32.368 121.169 32.368C118.313 32.368 116.225 31.696 114.905 30.352C113.609 29.008 112.961 27.1 112.961 24.628C112.961 23.044 113.285 21.64 113.933 20.416C114.581 19.168 115.613 18.196 117.029 17.5C118.445 16.804 120.305 16.456 122.609 16.456C125.969 16.456 128.429 17.248 129.989 18.832C131.573 20.392 132.365 22.732 132.365 25.852V30.316C132.365 32.236 131.921 33.964 131.033 35.5C130.169 37.012 128.921 38.2 127.289 39.064C125.657 39.928 123.701 40.36 121.421 40.36ZM122.465 27.544C123.065 27.544 123.677 27.436 124.301 27.22C124.925 27.004 125.501 26.74 126.029 26.428V24.772C126.029 23.548 125.741 22.66 125.165 22.108C124.613 21.532 123.737 21.244 122.537 21.244C121.361 21.244 120.473 21.52 119.873 22.072C119.297 22.624 119.009 23.392 119.009 24.376C119.009 25.384 119.261 26.164 119.765 26.716C120.269 27.268 121.169 27.544 122.465 27.544Z"/>
</mask>
<path d="M60.4922 40V23.08L56.6402 23.656V18.004L67.2602 16.456V40H60.4922ZM78.2487 40.36C76.9527 40.36 75.8247 40.288 74.8647 40.144C73.9287 40.024 73.0047 39.796 72.0927 39.46V34.204C72.9327 34.564 73.7847 34.816 74.6487 34.96C75.5367 35.104 76.5207 35.176 77.6007 35.176C79.3767 35.176 80.6967 34.84 81.5607 34.168C82.4247 33.496 82.8567 32.692 82.8567 31.756V31.072C82.2567 31.456 81.4887 31.768 80.5527 32.008C79.6407 32.248 78.7887 32.368 77.9967 32.368C75.1407 32.368 73.0527 31.696 71.7327 30.352C70.4367 29.008 69.7887 27.1 69.7887 24.628C69.7887 23.044 70.1127 21.64 70.7607 20.416C71.4087 19.168 72.4407 18.196 73.8567 17.5C75.2727 16.804 77.1327 16.456 79.4367 16.456C82.7967 16.456 85.2567 17.248 86.8167 18.832C88.4007 20.392 89.1927 22.732 89.1927 25.852V30.316C89.1927 32.236 88.7487 33.964 87.8607 35.5C86.9967 37.012 85.7487 38.2 84.1167 39.064C82.4847 39.928 80.5287 40.36 78.2487 40.36ZM79.2927 27.544C79.8927 27.544 80.5047 27.436 81.1287 27.22C81.7527 27.004 82.3287 26.74 82.8567 26.428V24.772C82.8567 23.548 82.5687 22.66 81.9927 22.108C81.4407 21.532 80.5647 21.244 79.3647 21.244C78.1887 21.244 77.3007 21.52 76.7007 22.072C76.1247 22.624 75.8367 23.392 75.8367 24.376C75.8367 25.384 76.0887 26.164 76.5927 26.716C77.0967 27.268 77.9967 27.544 79.2927 27.544ZM101.032 40.36C97.5759 40.36 95.0319 39.76 93.3999 38.56C91.7919 37.36 90.9879 35.596 90.9879 33.268C90.9879 32.14 91.2519 31.096 91.7799 30.136C92.3319 29.176 93.0759 28.468 94.0119 28.012C93.1959 27.508 92.5839 26.86 92.1759 26.068C91.7679 25.276 91.5639 24.436 91.5639 23.548C91.5639 21.388 92.3079 19.672 93.7959 18.4C95.2839 17.104 97.6959 16.456 101.032 16.456C103.336 16.456 105.184 16.744 106.576 17.32C107.968 17.896 108.976 18.724 109.6 19.804C110.248 20.86 110.572 22.108 110.572 23.548C110.572 24.436 110.368 25.3 109.96 26.14C109.552 26.98 108.916 27.664 108.052 28.192C110.116 29.224 111.148 30.916 111.148 33.268C111.148 35.596 110.332 37.36 108.7 38.56C107.068 39.76 104.512 40.36 101.032 40.36ZM101.932 26.32C102.7 26.056 103.252 25.732 103.588 25.348C103.948 24.964 104.128 24.412 104.128 23.692C104.128 22.132 103.096 21.352 101.032 21.352C98.9919 21.352 97.9719 22.132 97.9719 23.692C97.9719 24.916 98.6199 25.66 99.9159 25.924L101.932 26.32ZM101.032 35.5C102.304 35.5 103.228 35.308 103.804 34.924C104.404 34.516 104.704 33.916 104.704 33.124C104.704 32.428 104.512 31.9 104.128 31.54C103.744 31.18 103.108 30.904 102.22 30.712L99.7719 30.208C99.0519 30.376 98.4759 30.664 98.0439 31.072C97.6119 31.48 97.3959 32.092 97.3959 32.908C97.3959 34.636 98.6079 35.5 101.032 35.5ZM121.421 40.36C120.125 40.36 118.997 40.288 118.037 40.144C117.101 40.024 116.177 39.796 115.265 39.46V34.204C116.105 34.564 116.957 34.816 117.821 34.96C118.709 35.104 119.693 35.176 120.773 35.176C122.549 35.176 123.869 34.84 124.733 34.168C125.597 33.496 126.029 32.692 126.029 31.756V31.072C125.429 31.456 124.661 31.768 123.725 32.008C122.813 32.248 121.961 32.368 121.169 32.368C118.313 32.368 116.225 31.696 114.905 30.352C113.609 29.008 112.961 27.1 112.961 24.628C112.961 23.044 113.285 21.64 113.933 20.416C114.581 19.168 115.613 18.196 117.029 17.5C118.445 16.804 120.305 16.456 122.609 16.456C125.969 16.456 128.429 17.248 129.989 18.832C131.573 20.392 132.365 22.732 132.365 25.852V30.316C132.365 32.236 131.921 33.964 131.033 35.5C130.169 37.012 128.921 38.2 127.289 39.064C125.657 39.928 123.701 40.36 121.421 40.36ZM122.465 27.544C123.065 27.544 123.677 27.436 124.301 27.22C124.925 27.004 125.501 26.74 126.029 26.428V24.772C126.029 23.548 125.741 22.66 125.165 22.108C124.613 21.532 123.737 21.244 122.537 21.244C121.361 21.244 120.473 21.52 119.873 22.072C119.297 22.624 119.009 23.392 119.009 24.376C119.009 25.384 119.261 26.164 119.765 26.716C120.269 27.268 121.169 27.544 122.465 27.544Z" fill="#FFFEFE"/>
<path d="M60.4922 40H57.4922V43H60.4922V40ZM60.4922 23.08H63.4922V19.598L60.0486 20.113L60.4922 23.08ZM56.6402 23.656H53.6402V27.138L57.0839 26.623L56.6402 23.656ZM56.6402 18.004L56.2075 15.0354L53.6402 15.4096V18.004H56.6402ZM67.2602 16.456H70.2602V12.987L66.8275 13.4874L67.2602 16.456ZM67.2602 40V43H70.2602V40H67.2602ZM63.4922 40V23.08H57.4922V40H63.4922ZM60.0486 20.113L56.1966 20.689L57.0839 26.623L60.9359 26.047L60.0486 20.113ZM59.6402 23.656V18.004H53.6402V23.656H59.6402ZM57.073 20.9726L67.693 19.4246L66.8275 13.4874L56.2075 15.0354L57.073 20.9726ZM64.2602 16.456V40H70.2602V16.456H64.2602ZM67.2602 37H60.4922V43H67.2602V37ZM74.8647 40.144L75.3097 37.1772L75.278 37.1724L75.2462 37.1684L74.8647 40.144ZM72.0927 39.46H69.0927V41.5519L71.0556 42.275L72.0927 39.46ZM72.0927 34.204L73.2744 31.4466L69.0927 29.6544V34.204H72.0927ZM74.6487 34.96L74.1555 37.9192L74.1685 37.9213L74.6487 34.96ZM81.5607 34.168L83.4025 36.5361L83.4025 36.5361L81.5607 34.168ZM82.8567 31.072H85.8567V25.5902L81.2395 28.5452L82.8567 31.072ZM80.5527 32.008L79.8075 29.102L79.7984 29.1044L79.7892 29.1068L80.5527 32.008ZM71.7327 30.352L69.5731 32.4344L69.5827 32.4443L69.5923 32.4541L71.7327 30.352ZM70.7607 20.416L73.412 21.8197L73.4176 21.8091L73.4232 21.7984L70.7607 20.416ZM73.8567 17.5L75.18 20.1923L75.18 20.1923L73.8567 17.5ZM86.8167 18.832L84.6792 20.9371L84.6953 20.9534L84.7116 20.9695L86.8167 18.832ZM87.8607 35.5L85.2635 33.9985L85.2597 34.005L85.2559 34.0116L87.8607 35.5ZM84.1167 39.064L82.713 36.4126L82.713 36.4126L84.1167 39.064ZM81.1287 27.22L80.1473 24.385L80.1473 24.385L81.1287 27.22ZM82.8567 26.428L84.3829 29.0108L85.8567 28.1399V26.428H82.8567ZM81.9927 22.108L79.8267 24.1837L79.8709 24.2298L79.917 24.274L81.9927 22.108ZM76.7007 22.072L74.6695 19.8642L74.647 19.8849L74.625 19.906L76.7007 22.072ZM76.5927 26.716L78.8081 24.6932L78.8081 24.6932L76.5927 26.716ZM78.2487 37.36C77.0556 37.36 76.083 37.2932 75.3097 37.1772L74.4197 43.1108C75.5664 43.2828 76.8497 43.36 78.2487 43.36V37.36ZM75.2462 37.1684C74.5407 37.0779 73.8363 36.9053 73.1298 36.645L71.0556 42.275C72.173 42.6867 73.3167 42.9701 74.4832 43.1196L75.2462 37.1684ZM75.0927 39.46V34.204H69.0927V39.46H75.0927ZM70.9109 36.9614C71.962 37.4119 73.0447 37.734 74.1555 37.9192L75.1419 32.0008C74.5247 31.898 73.9034 31.7161 73.2744 31.4466L70.9109 36.9614ZM74.1685 37.9213C75.243 38.0956 76.3906 38.176 77.6007 38.176V32.176C76.6507 32.176 75.8304 32.1124 75.1289 31.9987L74.1685 37.9213ZM77.6007 38.176C79.6598 38.176 81.773 37.8034 83.4025 36.5361L79.7189 31.7999C79.6203 31.8766 79.0935 32.176 77.6007 32.176V38.176ZM83.4025 36.5361C84.8579 35.4041 85.8567 33.7811 85.8567 31.756H79.8567C79.8567 31.7571 79.8568 31.7396 79.8641 31.7104C79.8714 31.6808 79.8818 31.6563 79.89 31.6411C79.9073 31.6088 79.8853 31.6705 79.7189 31.7999L83.4025 36.5361ZM85.8567 31.756V31.072H79.8567V31.756H85.8567ZM81.2395 28.5452C80.9847 28.7082 80.537 28.915 79.8075 29.102L81.2978 34.914C82.4403 34.621 83.5286 34.2038 84.4738 33.5988L81.2395 28.5452ZM79.7892 29.1068C79.0805 29.2933 78.4875 29.368 77.9967 29.368V35.368C79.0898 35.368 80.2008 35.2027 81.3162 34.9092L79.7892 29.1068ZM77.9967 29.368C75.5358 29.368 74.395 28.7814 73.873 28.2499L69.5923 32.4541C71.7103 34.6106 74.7456 35.368 77.9967 35.368V29.368ZM73.8922 28.2696C73.2919 27.647 72.7887 26.5824 72.7887 24.628H66.7887C66.7887 27.6176 67.5815 30.369 69.5731 32.4344L73.8922 28.2696ZM72.7887 24.628C72.7887 23.4624 73.024 22.5526 73.412 21.8197L68.1093 19.0123C67.2013 20.7274 66.7887 22.6256 66.7887 24.628H72.7887ZM73.4232 21.7984C73.7404 21.1874 74.2653 20.6419 75.18 20.1923L72.5333 14.8077C70.616 15.7501 69.0769 17.1486 68.0982 19.0336L73.4232 21.7984ZM75.18 20.1923C76.0391 19.7701 77.3964 19.456 79.4367 19.456V13.456C76.8689 13.456 74.5063 13.8379 72.5333 14.8077L75.18 20.1923ZM79.4367 19.456C82.3989 19.456 83.9153 20.1614 84.6792 20.9371L88.9541 16.7269C86.5981 14.3346 83.1945 13.456 79.4367 13.456V19.456ZM84.7116 20.9695C85.5246 21.7702 86.1927 23.2061 86.1927 25.852H92.1927C92.1927 22.2579 91.2767 19.0138 88.9217 16.6945L84.7116 20.9695ZM86.1927 25.852V30.316H92.1927V25.852H86.1927ZM86.1927 30.316C86.1927 31.7535 85.8661 32.9561 85.2635 33.9985L90.4579 37.0015C91.6313 34.9719 92.1927 32.7185 92.1927 30.316H86.1927ZM85.2559 34.0116C84.6913 34.9997 83.8743 35.7978 82.713 36.4126L85.5203 41.7154C87.623 40.6022 89.302 39.0243 90.4654 36.9884L85.2559 34.0116ZM82.713 36.4126C81.6035 37 80.1525 37.36 78.2487 37.36V43.36C80.9049 43.36 83.3659 42.856 85.5203 41.7154L82.713 36.4126ZM79.2927 30.544C80.2586 30.544 81.202 30.3693 82.11 30.055L80.1473 24.385C79.8074 24.5027 79.5268 24.544 79.2927 24.544V30.544ZM82.11 30.055C82.9092 29.7783 83.6695 29.4323 84.3829 29.0108L81.3305 23.8452C80.9878 24.0477 80.5961 24.2297 80.1473 24.385L82.11 30.055ZM85.8567 26.428V24.772H79.8567V26.428H85.8567ZM85.8567 24.772C85.8567 23.1608 85.4866 21.3011 84.0684 19.942L79.917 24.274C79.7907 24.153 79.7698 24.0605 79.787 24.1135C79.8093 24.1821 79.8567 24.3823 79.8567 24.772H85.8567ZM84.1586 20.0323C82.8091 18.6241 80.9728 18.244 79.3647 18.244V24.244C79.7369 24.244 79.9245 24.2901 79.9847 24.3099C80.029 24.3245 79.9404 24.3023 79.8267 24.1837L84.1586 20.0323ZM79.3647 18.244C77.7662 18.244 76.0258 18.6164 74.6695 19.8642L78.7318 24.2798C78.6618 24.3442 78.6276 24.3405 78.7071 24.3158C78.7982 24.2875 79.0026 24.244 79.3647 24.244V18.244ZM74.625 19.906C73.3259 21.1509 72.8367 22.7781 72.8367 24.376H78.8367C78.8367 24.1738 78.8664 24.1027 78.8617 24.1154C78.8591 24.1221 78.8505 24.1423 78.8328 24.1695C78.8148 24.1969 78.7947 24.2205 78.7764 24.238L74.625 19.906ZM72.8367 24.376C72.8367 25.8677 73.2146 27.4655 74.3772 28.7388L78.8081 24.6932C78.8724 24.7636 78.8873 24.8162 78.8804 24.7947C78.8698 24.762 78.8367 24.636 78.8367 24.376H72.8367ZM74.3772 28.7388C75.7498 30.2422 77.7365 30.544 79.2927 30.544V24.544C78.8391 24.544 78.6057 24.4935 78.5252 24.4688C78.4567 24.4478 78.6158 24.4826 78.8081 24.6932L74.3772 28.7388ZM93.3999 38.56L91.6056 40.9643L91.6142 40.9707L91.6227 40.977L93.3999 38.56ZM91.7799 30.136L89.1792 28.6406L89.165 28.6653L89.1512 28.6902L91.7799 30.136ZM94.0119 28.012L95.3258 30.709L100.224 28.3227L95.5884 25.4596L94.0119 28.012ZM92.1759 26.068L94.8428 24.6941L94.8428 24.6941L92.1759 26.068ZM93.7959 18.4L95.7452 20.6804L95.7558 20.6714L95.7662 20.6622L93.7959 18.4ZM106.576 17.32L107.723 14.5479L107.723 14.5479L106.576 17.32ZM109.6 19.804L107.002 21.3048L107.022 21.3392L107.043 21.373L109.6 19.804ZM109.96 26.14L112.658 27.4507L112.658 27.4507L109.96 26.14ZM108.052 28.192L106.488 25.6322L101.869 28.4546L106.71 30.8753L108.052 28.192ZM108.7 38.56L106.923 36.143L106.923 36.143L108.7 38.56ZM101.932 26.32L101.354 29.2637L102.145 29.4191L102.907 29.1571L101.932 26.32ZM103.588 25.348L101.399 23.2962L101.364 23.3337L101.33 23.3725L103.588 25.348ZM99.9159 25.924L99.3171 28.8636L99.3274 28.8657L99.3377 28.8677L99.9159 25.924ZM103.804 34.924L105.468 37.4202L105.479 37.4125L105.491 37.4048L103.804 34.924ZM104.128 31.54L106.18 29.3514L106.18 29.3514L104.128 31.54ZM102.22 30.712L102.854 27.7798L102.839 27.7766L102.825 27.7736L102.22 30.712ZM99.7719 30.208L100.377 27.2696L99.7317 27.1368L99.0902 27.2865L99.7719 30.208ZM98.0439 31.072L100.104 33.253L100.104 33.253L98.0439 31.072ZM101.032 37.36C97.8095 37.36 96.0423 36.7793 95.1771 36.143L91.6227 40.977C94.0214 42.7407 97.3423 43.36 101.032 43.36V37.36ZM95.1941 36.1557C94.4733 35.6178 93.9879 34.8218 93.9879 33.268H87.9879C87.9879 36.3702 89.1104 39.1022 91.6056 40.9643L95.1941 36.1557ZM93.9879 33.268C93.9879 32.6299 94.1315 32.0854 94.4085 31.5818L89.1512 28.6902C88.3722 30.1066 87.9879 31.65 87.9879 33.268H93.9879ZM94.3806 31.6314C94.6535 31.1568 94.9643 30.8851 95.3258 30.709L92.698 25.315C91.1875 26.0509 90.0103 27.1952 89.1792 28.6406L94.3806 31.6314ZM95.5884 25.4596C95.1994 25.2193 94.9821 24.9644 94.8428 24.6941L89.509 27.4419C90.1857 28.7556 91.1924 29.7967 92.4354 30.5644L95.5884 25.4596ZM94.8428 24.6941C94.6529 24.3256 94.5639 23.9564 94.5639 23.548H88.5639C88.5639 24.9156 88.8828 26.2264 89.509 27.4419L94.8428 24.6941ZM94.5639 23.548C94.5639 22.163 94.9979 21.3192 95.7452 20.6804L91.8465 16.1196C89.6179 18.0248 88.5639 20.613 88.5639 23.548H94.5639ZM95.7662 20.6622C96.4394 20.076 97.9593 19.456 101.032 19.456V13.456C97.4325 13.456 94.1284 14.132 91.8255 16.1378L95.7662 20.6622ZM101.032 19.456C103.129 19.456 104.541 19.7246 105.429 20.092L107.723 14.5479C105.827 13.7634 103.542 13.456 101.032 13.456V19.456ZM105.429 20.092C106.341 20.4695 106.773 20.908 107.002 21.3048L112.197 18.3032C111.179 16.54 109.595 15.3225 107.723 14.5479L105.429 20.092ZM107.043 21.373C107.357 21.8847 107.572 22.5705 107.572 23.548H113.572C113.572 21.6455 113.139 19.8353 112.157 18.235L107.043 21.373ZM107.572 23.548C107.572 23.9585 107.481 24.3761 107.261 24.8293L112.658 27.4507C113.254 26.2239 113.572 24.9135 113.572 23.548H107.572ZM107.261 24.8293C107.125 25.1095 106.905 25.3772 106.488 25.6322L109.616 30.7518C110.927 29.9508 111.978 28.8505 112.658 27.4507L107.261 24.8293ZM106.71 30.8753C107.323 31.1816 107.635 31.5065 107.813 31.7971C107.992 32.0912 108.148 32.5392 108.148 33.268H114.148C114.148 31.6448 113.788 30.0708 112.935 28.6729C112.08 27.2715 110.845 26.2344 109.394 25.5087L106.71 30.8753ZM108.148 33.268C108.148 34.8046 107.664 35.5984 106.923 36.143L110.477 40.977C113 39.1216 114.148 36.3874 114.148 33.268H108.148ZM106.923 36.143C106.06 36.7774 104.284 37.36 101.032 37.36V43.36C104.74 43.36 108.076 42.7426 110.477 40.977L106.923 36.143ZM102.907 29.1571C103.906 28.8138 105.018 28.2693 105.846 27.3235L101.33 23.3725C101.42 23.2696 101.469 23.2531 101.403 23.2918C101.338 23.3299 101.199 23.3995 100.957 23.4829L102.907 29.1571ZM105.777 27.3998C106.824 26.2823 107.128 24.8899 107.128 23.692H101.128C101.128 23.8088 101.113 23.8023 101.141 23.7159C101.173 23.6174 101.249 23.4568 101.399 23.2962L105.777 27.3998ZM107.128 23.692C107.128 22.1887 106.587 20.6199 105.163 19.5437C103.897 18.5872 102.356 18.352 101.032 18.352V24.352C101.369 24.352 101.564 24.3848 101.653 24.4073C101.739 24.429 101.673 24.4271 101.545 24.3303C101.4 24.221 101.269 24.0595 101.189 23.8788C101.118 23.7157 101.128 23.6293 101.128 23.692H107.128ZM101.032 18.352C99.7142 18.352 98.1761 18.5892 96.9145 19.5539C95.5008 20.635 94.9719 22.2016 94.9719 23.692H100.972C100.972 23.6251 100.983 23.7072 100.913 23.867C100.836 24.0446 100.706 24.2075 100.559 24.3201C100.428 24.4204 100.356 24.4252 100.434 24.4053C100.516 24.3844 100.703 24.352 101.032 24.352V18.352ZM94.9719 23.692C94.9719 24.8475 95.2893 26.0977 96.1956 27.1383C97.0792 28.1528 98.2417 28.6446 99.3171 28.8636L100.515 22.9844C100.294 22.9394 100.485 22.9272 100.72 23.1977C100.834 23.3281 100.905 23.4673 100.943 23.5817C100.978 23.6877 100.972 23.7355 100.972 23.692H94.9719ZM99.3377 28.8677L101.354 29.2637L102.51 23.3763L100.494 22.9803L99.3377 28.8677ZM101.032 38.5C102.469 38.5 104.135 38.3086 105.468 37.4202L102.14 32.4278C102.265 32.3445 102.282 32.3743 102.069 32.4187C101.863 32.4615 101.529 32.5 101.032 32.5V38.5ZM105.491 37.4048C106.997 36.3806 107.704 34.8022 107.704 33.124H101.704C101.704 33.138 101.703 33.0118 101.796 32.8264C101.893 32.6307 102.029 32.5033 102.117 32.4432L105.491 37.4048ZM107.704 33.124C107.704 31.8785 107.346 30.4451 106.18 29.3514L102.076 33.7286C101.901 33.5649 101.794 33.3793 101.741 33.2312C101.692 33.0987 101.704 33.0453 101.704 33.124H107.704ZM106.18 29.3514C105.206 28.4387 103.935 28.0135 102.854 27.7798L101.586 33.6442C101.893 33.7107 102.077 33.7751 102.169 33.815C102.265 33.8569 102.201 33.8457 102.076 33.7286L106.18 29.3514ZM102.825 27.7736L100.377 27.2696L99.1669 33.1464L101.615 33.6504L102.825 27.7736ZM99.0902 27.2865C97.9784 27.5459 96.8855 28.0395 95.984 28.891L100.104 33.253C100.066 33.2885 100.125 33.2061 100.454 33.1295L99.0902 27.2865ZM95.984 28.891C94.7546 30.0521 94.3959 31.5844 94.3959 32.908H100.396C100.396 32.7564 100.417 32.7503 100.387 32.8355C100.351 32.9369 100.266 33.1001 100.104 33.253L95.984 28.891ZM94.3959 32.908C94.3959 34.5629 95.0325 36.2034 96.5635 37.2948C97.9076 38.253 99.5542 38.5 101.032 38.5V32.5C100.594 32.5 100.306 32.4601 100.135 32.4193C99.9642 32.3788 99.9647 32.351 100.046 32.4092C100.147 32.4806 100.264 32.6077 100.341 32.7713C100.41 32.9191 100.396 32.9906 100.396 32.908H94.3959ZM118.037 40.144L118.482 37.1772L118.45 37.1724L118.418 37.1684L118.037 40.144ZM115.265 39.46H112.265V41.5519L114.227 42.275L115.265 39.46ZM115.265 34.204L116.446 31.4466L112.265 29.6544V34.204H115.265ZM117.821 34.96L117.327 37.9192L117.34 37.9213L117.821 34.96ZM124.733 34.168L126.574 36.5361L126.574 36.5361L124.733 34.168ZM126.029 31.072H129.029V25.5902L124.411 28.5452L126.029 31.072ZM123.725 32.008L122.979 29.102L122.97 29.1044L122.961 29.1068L123.725 32.008ZM114.905 30.352L112.745 32.4344L112.755 32.4443L112.764 32.4541L114.905 30.352ZM113.933 20.416L116.584 21.8197L116.59 21.8091L116.595 21.7984L113.933 20.416ZM117.029 17.5L118.352 20.1923L118.352 20.1923L117.029 17.5ZM129.989 18.832L127.851 20.9371L127.867 20.9534L127.883 20.9695L129.989 18.832ZM131.033 35.5L128.435 33.9985L128.432 34.005L128.428 34.0116L131.033 35.5ZM127.289 39.064L125.885 36.4126L125.885 36.4126L127.289 39.064ZM124.301 27.22L123.319 24.385L123.319 24.385L124.301 27.22ZM126.029 26.428L127.555 29.0108L129.029 28.1399V26.428H126.029ZM125.165 22.108L122.999 24.1837L123.043 24.2298L123.089 24.274L125.165 22.108ZM119.873 22.072L117.841 19.8642L117.819 19.8849L117.797 19.906L119.873 22.072ZM119.765 26.716L121.98 24.6932L121.98 24.6932L119.765 26.716ZM121.421 37.36C120.228 37.36 119.255 37.2932 118.482 37.1772L117.592 43.1108C118.738 43.2828 120.022 43.36 121.421 43.36V37.36ZM118.418 37.1684C117.713 37.0779 117.008 36.9053 116.302 36.645L114.227 42.275C115.345 42.6867 116.489 42.9701 117.655 43.1196L118.418 37.1684ZM118.265 39.46V34.204H112.265V39.46H118.265ZM114.083 36.9614C115.134 37.4119 116.217 37.734 117.327 37.9192L118.314 32.0008C117.697 31.898 117.075 31.7161 116.446 31.4466L114.083 36.9614ZM117.34 37.9213C118.415 38.0956 119.562 38.176 120.773 38.176V32.176C119.823 32.176 119.002 32.1124 118.301 31.9987L117.34 37.9213ZM120.773 38.176C122.832 38.176 124.945 37.8034 126.574 36.5361L122.891 31.7999C122.792 31.8766 122.265 32.176 120.773 32.176V38.176ZM126.574 36.5361C128.03 35.4041 129.029 33.7811 129.029 31.756H123.029C123.029 31.7571 123.029 31.7396 123.036 31.7104C123.043 31.6808 123.054 31.6563 123.062 31.6411C123.079 31.6088 123.057 31.6705 122.891 31.7999L126.574 36.5361ZM129.029 31.756V31.072H123.029V31.756H129.029ZM124.411 28.5452C124.157 28.7082 123.709 28.915 122.979 29.102L124.47 34.914C125.612 34.621 126.7 34.2038 127.646 33.5988L124.411 28.5452ZM122.961 29.1068C122.252 29.2933 121.659 29.368 121.169 29.368V35.368C122.262 35.368 123.373 35.2027 124.488 34.9092L122.961 29.1068ZM121.169 29.368C118.708 29.368 117.567 28.7814 117.045 28.2499L112.764 32.4541C114.882 34.6106 117.917 35.368 121.169 35.368V29.368ZM117.064 28.2696C116.464 27.647 115.961 26.5824 115.961 24.628H109.961C109.961 27.6176 110.753 30.369 112.745 32.4344L117.064 28.2696ZM115.961 24.628C115.961 23.4624 116.196 22.5526 116.584 21.8197L111.281 19.0123C110.373 20.7274 109.961 22.6256 109.961 24.628H115.961ZM116.595 21.7984C116.912 21.1874 117.437 20.6419 118.352 20.1923L115.705 14.8077C113.788 15.7501 112.249 17.1486 111.27 19.0336L116.595 21.7984ZM118.352 20.1923C119.211 19.7701 120.568 19.456 122.609 19.456V13.456C120.041 13.456 117.678 13.8379 115.705 14.8077L118.352 20.1923ZM122.609 19.456C125.571 19.456 127.087 20.1614 127.851 20.9371L132.126 16.7269C129.77 14.3346 126.366 13.456 122.609 13.456V19.456ZM127.883 20.9695C128.697 21.7702 129.365 23.2061 129.365 25.852H135.365C135.365 22.2579 134.449 19.0138 132.094 16.6945L127.883 20.9695ZM129.365 25.852V30.316H135.365V25.852H129.365ZM129.365 30.316C129.365 31.7535 129.038 32.9561 128.435 33.9985L133.63 37.0015C134.803 34.9719 135.365 32.7185 135.365 30.316H129.365ZM128.428 34.0116C127.863 34.9997 127.046 35.7978 125.885 36.4126L128.692 41.7154C130.795 40.6022 132.474 39.0243 133.637 36.9884L128.428 34.0116ZM125.885 36.4126C124.775 37 123.324 37.36 121.421 37.36V43.36C124.077 43.36 126.538 42.856 128.692 41.7154L125.885 36.4126ZM122.465 30.544C123.43 30.544 124.374 30.3693 125.282 30.055L123.319 24.385C122.979 24.5027 122.699 24.544 122.465 24.544V30.544ZM125.282 30.055C126.081 29.7783 126.841 29.4323 127.555 29.0108L124.502 23.8452C124.16 24.0477 123.768 24.2297 123.319 24.385L125.282 30.055ZM129.029 26.428V24.772H123.029V26.428H129.029ZM129.029 24.772C129.029 23.1608 128.658 21.3011 127.24 19.942L123.089 24.274C122.963 24.153 122.942 24.0605 122.959 24.1135C122.981 24.1821 123.029 24.3823 123.029 24.772H129.029ZM127.331 20.0323C125.981 18.6241 124.145 18.244 122.537 18.244V24.244C122.909 24.244 123.096 24.2901 123.157 24.3099C123.201 24.3245 123.112 24.3023 122.999 24.1837L127.331 20.0323ZM122.537 18.244C120.938 18.244 119.198 18.6164 117.841 19.8642L121.904 24.2798C121.834 24.3442 121.799 24.3405 121.879 24.3158C121.97 24.2875 122.175 24.244 122.537 24.244V18.244ZM117.797 19.906C116.498 21.1509 116.009 22.7781 116.009 24.376H122.009C122.009 24.1738 122.038 24.1027 122.034 24.1154C122.031 24.1221 122.022 24.1423 122.005 24.1695C121.987 24.1969 121.967 24.2205 121.948 24.238L117.797 19.906ZM116.009 24.376C116.009 25.8677 116.386 27.4655 117.549 28.7388L121.98 24.6932C122.044 24.7636 122.059 24.8162 122.052 24.7947C122.042 24.762 122.009 24.636 122.009 24.376H116.009ZM117.549 28.7388C118.922 30.2422 120.908 30.544 122.465 30.544V24.544C122.011 24.544 121.778 24.4935 121.697 24.4688C121.629 24.4478 121.788 24.4826 121.98 24.6932L117.549 28.7388Z" fill="#302D4A" mask="url(#path-2-outside-1_65_5)"/>
</svg>
