<svg width="188" height="53" viewBox="0 0 188 53" fill="none" xmlns="http://www.w3.org/2000/svg">
<rect width="188" height="53" rx="8" fill="#02DED8"/>
<mask id="path-2-outside-1_65_5" maskUnits="userSpaceOnUse" x="54" y="12" width="81" height="32" fill="black">
<rect fill="white" x="54" y="12" width="81" height="32"/>
<path d="M61.5997 40V23.08L57.7477 23.656V18.004L68.3677 16.456V40H61.5997ZM79.3561 40.36C78.0601 40.36 76.9321 40.288 75.9721 40.144C75.0361 40.024 74.1121 39.796 73.2001 39.46V34.204C74.0401 34.564 74.8921 34.816 75.7561 34.96C76.6441 35.104 77.6281 35.176 78.7081 35.176C80.4841 35.176 81.8041 34.84 82.6681 34.168C83.5321 33.496 83.9641 32.692 83.9641 31.756V31.072C83.3641 31.456 82.5961 31.768 81.6601 32.008C80.7481 32.248 79.8961 32.368 79.1041 32.368C76.2481 32.368 74.1601 31.696 72.8401 30.352C71.5441 29.008 70.8961 27.1 70.8961 24.628C70.8961 23.044 71.2201 21.64 71.8681 20.416C72.5161 19.168 73.5481 18.196 74.9641 17.5C76.3801 16.804 78.2401 16.456 80.5441 16.456C83.9041 16.456 86.3641 17.248 87.9241 18.832C89.5081 20.392 90.3001 22.732 90.3001 25.852V30.316C90.3001 32.236 89.8561 33.964 88.9681 35.5C88.1041 37.012 86.8561 38.2 85.2241 39.064C83.5921 39.928 81.6361 40.36 79.3561 40.36ZM80.4001 27.544C81.0001 27.544 81.6121 27.436 82.2361 27.22C82.8601 27.004 83.4361 26.74 83.9641 26.428V24.772C83.9641 23.548 83.6761 22.66 83.1001 22.108C82.5481 21.532 81.6721 21.244 80.4721 21.244C79.2961 21.244 78.4081 21.52 77.8081 22.072C77.2321 22.624 76.9441 23.392 76.9441 24.376C76.9441 25.384 77.1961 26.164 77.7001 26.716C78.2041 27.268 79.1041 27.544 80.4001 27.544ZM100.555 40.36C99.2593 40.36 98.1313 40.288 97.1713 40.144C96.2353 40.024 95.3113 39.796 94.3993 39.46V34.204C95.2393 34.564 96.0913 34.816 96.9553 34.96C97.8433 35.104 98.8273 35.176 99.9073 35.176C101.683 35.176 103.003 34.84 103.867 34.168C104.731 33.496 105.163 32.692 105.163 31.756V31.072C104.563 31.456 103.795 31.768 102.859 32.008C101.947 32.248 101.095 32.368 100.303 32.368C97.4473 32.368 95.3593 31.696 94.0393 30.352C92.7433 29.008 92.0953 27.1 92.0953 24.628C92.0953 23.044 92.4193 21.64 93.0673 20.416C93.7153 19.168 94.7473 18.196 96.1633 17.5C97.5793 16.804 99.4393 16.456 101.743 16.456C105.103 16.456 107.563 17.248 109.123 18.832C110.707 20.392 111.499 22.732 111.499 25.852V30.316C111.499 32.236 111.055 33.964 110.167 35.5C109.303 37.012 108.055 38.2 106.423 39.064C104.791 39.928 102.835 40.36 100.555 40.36ZM101.599 27.544C102.199 27.544 102.811 27.436 103.435 27.22C104.059 27.004 104.635 26.74 105.163 26.428V24.772C105.163 23.548 104.875 22.66 104.299 22.108C103.747 21.532 102.871 21.244 101.671 21.244C100.495 21.244 99.6073 21.52 99.0073 22.072C98.4313 22.624 98.1433 23.392 98.1433 24.376C98.1433 25.384 98.3953 26.164 98.8993 26.716C99.4033 27.268 100.303 27.544 101.599 27.544ZM123.123 40V35.644H112.575V31.216L124.023 16.816H129.891V30.172H131.979V35.644H129.891V40H123.123ZM119.091 30.46H124.311V24.16L119.091 30.46Z"/>
</mask>
<path d="M61.5997 40V23.08L57.7477 23.656V18.004L68.3677 16.456V40H61.5997ZM79.3561 40.36C78.0601 40.36 76.9321 40.288 75.9721 40.144C75.0361 40.024 74.1121 39.796 73.2001 39.46V34.204C74.0401 34.564 74.8921 34.816 75.7561 34.96C76.6441 35.104 77.6281 35.176 78.7081 35.176C80.4841 35.176 81.8041 34.84 82.6681 34.168C83.5321 33.496 83.9641 32.692 83.9641 31.756V31.072C83.3641 31.456 82.5961 31.768 81.6601 32.008C80.7481 32.248 79.8961 32.368 79.1041 32.368C76.2481 32.368 74.1601 31.696 72.8401 30.352C71.5441 29.008 70.8961 27.1 70.8961 24.628C70.8961 23.044 71.2201 21.64 71.8681 20.416C72.5161 19.168 73.5481 18.196 74.9641 17.5C76.3801 16.804 78.2401 16.456 80.5441 16.456C83.9041 16.456 86.3641 17.248 87.9241 18.832C89.5081 20.392 90.3001 22.732 90.3001 25.852V30.316C90.3001 32.236 89.8561 33.964 88.9681 35.5C88.1041 37.012 86.8561 38.2 85.2241 39.064C83.5921 39.928 81.6361 40.36 79.3561 40.36ZM80.4001 27.544C81.0001 27.544 81.6121 27.436 82.2361 27.22C82.8601 27.004 83.4361 26.74 83.9641 26.428V24.772C83.9641 23.548 83.6761 22.66 83.1001 22.108C82.5481 21.532 81.6721 21.244 80.4721 21.244C79.2961 21.244 78.4081 21.52 77.8081 22.072C77.2321 22.624 76.9441 23.392 76.9441 24.376C76.9441 25.384 77.1961 26.164 77.7001 26.716C78.2041 27.268 79.1041 27.544 80.4001 27.544ZM100.555 40.36C99.2593 40.36 98.1313 40.288 97.1713 40.144C96.2353 40.024 95.3113 39.796 94.3993 39.46V34.204C95.2393 34.564 96.0913 34.816 96.9553 34.96C97.8433 35.104 98.8273 35.176 99.9073 35.176C101.683 35.176 103.003 34.84 103.867 34.168C104.731 33.496 105.163 32.692 105.163 31.756V31.072C104.563 31.456 103.795 31.768 102.859 32.008C101.947 32.248 101.095 32.368 100.303 32.368C97.4473 32.368 95.3593 31.696 94.0393 30.352C92.7433 29.008 92.0953 27.1 92.0953 24.628C92.0953 23.044 92.4193 21.64 93.0673 20.416C93.7153 19.168 94.7473 18.196 96.1633 17.5C97.5793 16.804 99.4393 16.456 101.743 16.456C105.103 16.456 107.563 17.248 109.123 18.832C110.707 20.392 111.499 22.732 111.499 25.852V30.316C111.499 32.236 111.055 33.964 110.167 35.5C109.303 37.012 108.055 38.2 106.423 39.064C104.791 39.928 102.835 40.36 100.555 40.36ZM101.599 27.544C102.199 27.544 102.811 27.436 103.435 27.22C104.059 27.004 104.635 26.74 105.163 26.428V24.772C105.163 23.548 104.875 22.66 104.299 22.108C103.747 21.532 102.871 21.244 101.671 21.244C100.495 21.244 99.6073 21.52 99.0073 22.072C98.4313 22.624 98.1433 23.392 98.1433 24.376C98.1433 25.384 98.3953 26.164 98.8993 26.716C99.4033 27.268 100.303 27.544 101.599 27.544ZM123.123 40V35.644H112.575V31.216L124.023 16.816H129.891V30.172H131.979V35.644H129.891V40H123.123ZM119.091 30.46H124.311V24.16L119.091 30.46Z" fill="#FFFEFE"/>
<path d="M61.5997 40H58.5997V43H61.5997V40ZM61.5997 23.08H64.5997V19.598L61.156 20.113L61.5997 23.08ZM57.7477 23.656H54.7477V27.138L58.1913 26.623L57.7477 23.656ZM57.7477 18.004L57.3149 15.0354L54.7477 15.4096V18.004H57.7477ZM68.3677 16.456H71.3677V12.987L67.9349 13.4874L68.3677 16.456ZM68.3677 40V43H71.3677V40H68.3677ZM64.5997 40V23.08H58.5997V40H64.5997ZM61.156 20.113L57.304 20.689L58.1913 26.623L62.0433 26.047L61.156 20.113ZM60.7477 23.656V18.004H54.7477V23.656H60.7477ZM58.1804 20.9726L68.8004 19.4246L67.9349 13.4874L57.3149 15.0354L58.1804 20.9726ZM65.3677 16.456V40H71.3677V16.456H65.3677ZM68.3677 37H61.5997V43H68.3677V37ZM75.9721 40.144L76.4171 37.1772L76.3854 37.1724L76.3536 37.1684L75.9721 40.144ZM73.2001 39.46H70.2001V41.5519L72.163 42.275L73.2001 39.46ZM73.2001 34.204L74.3819 31.4466L70.2001 29.6544V34.204H73.2001ZM75.7561 34.96L75.2629 37.9192L75.2759 37.9213L75.7561 34.96ZM82.6681 34.168L84.5099 36.5361L84.5099 36.5361L82.6681 34.168ZM83.9641 31.072H86.9641V25.5902L82.3469 28.5452L83.9641 31.072ZM81.6601 32.008L80.915 29.102L80.9058 29.1044L80.8966 29.1068L81.6601 32.008ZM72.8401 30.352L70.6806 32.4344L70.6901 32.4443L70.6997 32.4541L72.8401 30.352ZM71.8681 20.416L74.5195 21.8197L74.5251 21.8091L74.5306 21.7984L71.8681 20.416ZM74.9641 17.5L76.2874 20.1923L76.2875 20.1923L74.9641 17.5ZM87.9241 18.832L85.7866 20.9371L85.8027 20.9534L85.819 20.9695L87.9241 18.832ZM88.9681 35.5L86.3709 33.9985L86.3671 34.005L86.3634 34.0116L88.9681 35.5ZM85.2241 39.064L83.8204 36.4126L83.8204 36.4126L85.2241 39.064ZM82.2361 27.22L81.2548 24.385L81.2548 24.385L82.2361 27.22ZM83.9641 26.428L85.4903 29.0108L86.9641 28.1399V26.428H83.9641ZM83.1001 22.108L80.9341 24.1837L80.9783 24.2298L81.0244 24.274L83.1001 22.108ZM77.8081 22.072L75.7769 19.8642L75.7544 19.8849L75.7324 19.906L77.8081 22.072ZM77.7001 26.716L79.9156 24.6932L79.9156 24.6932L77.7001 26.716ZM79.3561 37.36C78.163 37.36 77.1904 37.2932 76.4171 37.1772L75.5271 43.1108C76.6738 43.2828 77.9571 43.36 79.3561 43.36V37.36ZM76.3536 37.1684C75.6481 37.0779 74.9438 36.9053 74.2372 36.645L72.163 42.275C73.2804 42.6867 74.4241 42.9701 75.5906 43.1196L76.3536 37.1684ZM76.2001 39.46V34.204H70.2001V39.46H76.2001ZM72.0183 36.9614C73.0694 37.4119 74.1521 37.734 75.2629 37.9192L76.2493 32.0008C75.6321 31.898 75.0108 31.7161 74.3819 31.4466L72.0183 36.9614ZM75.2759 37.9213C76.3504 38.0956 77.498 38.176 78.7081 38.176V32.176C77.7581 32.176 76.9378 32.1124 76.2363 31.9987L75.2759 37.9213ZM78.7081 38.176C80.7672 38.176 82.8804 37.8034 84.5099 36.5361L80.8263 31.7999C80.7277 31.8766 80.2009 32.176 78.7081 32.176V38.176ZM84.5099 36.5361C85.9653 35.4041 86.9641 33.7811 86.9641 31.756H80.9641C80.9641 31.7571 80.9642 31.7396 80.9715 31.7104C80.9788 31.6808 80.9892 31.6563 80.9974 31.6411C81.0147 31.6088 80.9928 31.6705 80.8263 31.7999L84.5099 36.5361ZM86.9641 31.756V31.072H80.9641V31.756H86.9641ZM82.3469 28.5452C82.0922 28.7082 81.6444 28.915 80.915 29.102L82.4052 34.914C83.5478 34.621 84.636 34.2038 85.5813 33.5988L82.3469 28.5452ZM80.8966 29.1068C80.188 29.2933 79.595 29.368 79.1041 29.368V35.368C80.1972 35.368 81.3082 35.2027 82.4236 34.9092L80.8966 29.1068ZM79.1041 29.368C76.6432 29.368 75.5025 28.7814 74.9804 28.2499L70.6997 32.4541C72.8177 34.6106 75.853 35.368 79.1041 35.368V29.368ZM74.9996 28.2696C74.3993 27.647 73.8961 26.5824 73.8961 24.628H67.8961C67.8961 27.6176 68.6889 30.369 70.6806 32.4344L74.9996 28.2696ZM73.8961 24.628C73.8961 23.4624 74.1314 22.5526 74.5195 21.8197L69.2167 19.0123C68.3088 20.7274 67.8961 22.6256 67.8961 24.628H73.8961ZM74.5306 21.7984C74.8479 21.1874 75.3727 20.6419 76.2874 20.1923L73.6407 14.8077C71.7234 15.7501 70.1843 17.1486 69.2056 19.0336L74.5306 21.7984ZM76.2875 20.1923C77.1465 19.7701 78.5038 19.456 80.5441 19.456V13.456C77.9764 13.456 75.6137 13.8379 73.6407 14.8077L76.2875 20.1923ZM80.5441 19.456C83.5063 19.456 85.0227 20.1614 85.7866 20.9371L90.0615 16.7269C87.7055 14.3346 84.3019 13.456 80.5441 13.456V19.456ZM85.819 20.9695C86.6321 21.7702 87.3001 23.2061 87.3001 25.852H93.3001C93.3001 22.2579 92.3841 19.0138 90.0292 16.6945L85.819 20.9695ZM87.3001 25.852V30.316H93.3001V25.852H87.3001ZM87.3001 30.316C87.3001 31.7535 86.9735 32.9561 86.3709 33.9985L91.5653 37.0015C92.7387 34.9719 93.3001 32.7185 93.3001 30.316H87.3001ZM86.3634 34.0116C85.7987 34.9997 84.9817 35.7978 83.8204 36.4126L86.6278 41.7154C88.7305 40.6022 90.4094 39.0243 91.5728 36.9884L86.3634 34.0116ZM83.8204 36.4126C82.7109 37 81.2599 37.36 79.3561 37.36V43.36C82.0123 43.36 84.4733 42.856 86.6278 41.7154L83.8204 36.4126ZM80.4001 30.544C81.366 30.544 82.3094 30.3693 83.2174 30.055L81.2548 24.385C80.9148 24.5027 80.6342 24.544 80.4001 24.544V30.544ZM83.2174 30.055C84.0166 29.7783 84.7769 29.4323 85.4903 29.0108L82.4379 23.8452C82.0953 24.0477 81.7035 24.2297 81.2548 24.385L83.2174 30.055ZM86.9641 26.428V24.772H80.9641V26.428H86.9641ZM86.9641 24.772C86.9641 23.1608 86.594 21.3011 85.1758 19.942L81.0244 24.274C80.8981 24.153 80.8772 24.0605 80.8944 24.1135C80.9167 24.1821 80.9641 24.3823 80.9641 24.772H86.9641ZM85.2661 20.0323C83.9165 18.6241 82.0802 18.244 80.4721 18.244V24.244C80.8443 24.244 81.0319 24.2901 81.0921 24.3099C81.1364 24.3245 81.0478 24.3023 80.9341 24.1837L85.2661 20.0323ZM80.4721 18.244C78.8736 18.244 77.1332 18.6164 75.7769 19.8642L79.8393 24.2798C79.7693 24.3442 79.735 24.3405 79.8145 24.3158C79.9057 24.2875 80.11 24.244 80.4721 24.244V18.244ZM75.7324 19.906C74.4334 21.1509 73.9441 22.7781 73.9441 24.376H79.9441C79.9441 24.1738 79.9738 24.1027 79.9691 24.1154C79.9666 24.1221 79.958 24.1423 79.9402 24.1695C79.9223 24.1969 79.9021 24.2205 79.8838 24.238L75.7324 19.906ZM73.9441 24.376C73.9441 25.8677 74.322 27.4655 75.4846 28.7388L79.9156 24.6932C79.9799 24.7636 79.9948 24.8162 79.9878 24.7947C79.9772 24.762 79.9441 24.636 79.9441 24.376H73.9441ZM75.4846 28.7388C76.8573 30.2422 78.8439 30.544 80.4001 30.544V24.544C79.9465 24.544 79.7131 24.4935 79.6327 24.4688C79.5641 24.4478 79.7232 24.4826 79.9156 24.6932L75.4846 28.7388ZM97.1713 40.144L97.6163 37.1772L97.5846 37.1724L97.5528 37.1684L97.1713 40.144ZM94.3993 39.46H91.3993V41.5519L93.3622 42.275L94.3993 39.46ZM94.3993 34.204L95.5811 31.4466L91.3993 29.6544V34.204H94.3993ZM96.9553 34.96L96.4621 37.9192L96.4751 37.9213L96.9553 34.96ZM103.867 34.168L105.709 36.5361L105.709 36.5361L103.867 34.168ZM105.163 31.072H108.163V25.5902L103.546 28.5452L105.163 31.072ZM102.859 32.008L102.114 29.102L102.105 29.1044L102.096 29.1068L102.859 32.008ZM94.0393 30.352L91.8798 32.4344L91.8893 32.4443L91.899 32.4541L94.0393 30.352ZM93.0673 20.416L95.7187 21.8197L95.7243 21.8091L95.7298 21.7984L93.0673 20.416ZM96.1633 17.5L97.4867 20.1923L97.4867 20.1923L96.1633 17.5ZM109.123 18.832L106.986 20.9371L107.002 20.9534L107.018 20.9695L109.123 18.832ZM110.167 35.5L107.57 33.9985L107.566 34.005L107.563 34.0116L110.167 35.5ZM106.423 39.064L105.02 36.4126L105.02 36.4126L106.423 39.064ZM103.435 27.22L102.454 24.385L102.454 24.385L103.435 27.22ZM105.163 26.428L106.69 29.0108L108.163 28.1399V26.428H105.163ZM104.299 22.108L102.133 24.1837L102.178 24.2298L102.224 24.274L104.299 22.108ZM99.0073 22.072L96.9761 19.8642L96.9537 19.8849L96.9316 19.906L99.0073 22.072ZM98.8993 26.716L101.115 24.6932L101.115 24.6932L98.8993 26.716ZM100.555 37.36C99.3623 37.36 98.3896 37.2932 97.6163 37.1772L96.7263 43.1108C97.873 43.2828 99.1564 43.36 100.555 43.36V37.36ZM97.5528 37.1684C96.8473 37.0779 96.143 36.9053 95.4364 36.645L93.3622 42.275C94.4796 42.6867 95.6233 42.9701 96.7898 43.1196L97.5528 37.1684ZM97.3993 39.46V34.204H91.3993V39.46H97.3993ZM93.2176 36.9614C94.2686 37.4119 95.3513 37.734 96.4621 37.9192L97.4485 32.0008C96.8313 31.898 96.21 31.7161 95.5811 31.4466L93.2176 36.9614ZM96.4751 37.9213C97.5496 38.0956 98.6973 38.176 99.9073 38.176V32.176C98.9574 32.176 98.137 32.1124 97.4355 31.9987L96.4751 37.9213ZM99.9073 38.176C101.966 38.176 104.08 37.8034 105.709 36.5361L102.025 31.7999C101.927 31.8766 101.4 32.176 99.9073 32.176V38.176ZM105.709 36.5361C107.165 35.4041 108.163 33.7811 108.163 31.756H102.163C102.163 31.7571 102.163 31.7396 102.171 31.7104C102.178 31.6808 102.188 31.6563 102.197 31.6411C102.214 31.6088 102.192 31.6705 102.025 31.7999L105.709 36.5361ZM108.163 31.756V31.072H102.163V31.756H108.163ZM103.546 28.5452C103.291 28.7082 102.844 28.915 102.114 29.102L103.604 34.914C104.747 34.621 105.835 34.2038 106.78 33.5988L103.546 28.5452ZM102.096 29.1068C101.387 29.2933 100.794 29.368 100.303 29.368V35.368C101.396 35.368 102.507 35.2027 103.623 34.9092L102.096 29.1068ZM100.303 29.368C97.8424 29.368 96.7017 28.7814 96.1797 28.2499L91.899 32.4541C94.0169 34.6106 97.0522 35.368 100.303 35.368V29.368ZM96.1988 28.2696C95.5985 27.647 95.0953 26.5824 95.0953 24.628H89.0953C89.0953 27.6176 89.8881 30.369 91.8798 32.4344L96.1988 28.2696ZM95.0953 24.628C95.0953 23.4624 95.3307 22.5526 95.7187 21.8197L90.4159 19.0123C89.508 20.7274 89.0953 22.6256 89.0953 24.628H95.0953ZM95.7298 21.7984C96.0471 21.1874 96.572 20.6419 97.4867 20.1923L94.84 14.8077C92.9227 15.7501 91.3836 17.1486 90.4048 19.0336L95.7298 21.7984ZM97.4867 20.1923C98.3457 19.7701 99.703 19.456 101.743 19.456V13.456C99.1756 13.456 96.8129 13.8379 94.84 14.8077L97.4867 20.1923ZM101.743 19.456C104.706 19.456 106.222 20.1614 106.986 20.9371L111.261 16.7269C108.905 14.3346 105.501 13.456 101.743 13.456V19.456ZM107.018 20.9695C107.831 21.7702 108.499 23.2061 108.499 25.852H114.499C114.499 22.2579 113.583 19.0138 111.228 16.6945L107.018 20.9695ZM108.499 25.852V30.316H114.499V25.852H108.499ZM108.499 30.316C108.499 31.7535 108.173 32.9561 107.57 33.9985L112.765 37.0015C113.938 34.9719 114.499 32.7185 114.499 30.316H108.499ZM107.563 34.0116C106.998 34.9997 106.181 35.7978 105.02 36.4126L107.827 41.7154C109.93 40.6022 111.609 39.0243 112.772 36.9884L107.563 34.0116ZM105.02 36.4126C103.91 37 102.459 37.36 100.555 37.36V43.36C103.212 43.36 105.673 42.856 107.827 41.7154L105.02 36.4126ZM101.599 30.544C102.565 30.544 103.509 30.3693 104.417 30.055L102.454 24.385C102.114 24.5027 101.833 24.544 101.599 24.544V30.544ZM104.417 30.055C105.216 29.7783 105.976 29.4323 106.69 29.0108L103.637 23.8452C103.294 24.0477 102.903 24.2297 102.454 24.385L104.417 30.055ZM108.163 26.428V24.772H102.163V26.428H108.163ZM108.163 24.772C108.163 23.1608 107.793 21.3011 106.375 19.942L102.224 24.274C102.097 24.153 102.076 24.0605 102.094 24.1135C102.116 24.1821 102.163 24.3823 102.163 24.772H108.163ZM106.465 20.0323C105.116 18.6241 103.279 18.244 101.671 18.244V24.244C102.044 24.244 102.231 24.2901 102.291 24.3099C102.336 24.3245 102.247 24.3023 102.133 24.1837L106.465 20.0323ZM101.671 18.244C100.073 18.244 98.3324 18.6164 96.9761 19.8642L101.038 24.2798C100.968 24.3442 100.934 24.3405 101.014 24.3158C101.105 24.2875 101.309 24.244 101.671 24.244V18.244ZM96.9316 19.906C95.6326 21.1509 95.1433 22.7781 95.1433 24.376H101.143C101.143 24.1738 101.173 24.1027 101.168 24.1154C101.166 24.1221 101.157 24.1423 101.139 24.1695C101.121 24.1969 101.101 24.2205 101.083 24.238L96.9316 19.906ZM95.1433 24.376C95.1433 25.8677 95.5212 27.4655 96.6839 28.7388L101.115 24.6932C101.179 24.7636 101.194 24.8162 101.187 24.7947C101.176 24.762 101.143 24.636 101.143 24.376H95.1433ZM96.6839 28.7388C98.0565 30.2422 100.043 30.544 101.599 30.544V24.544C101.146 24.544 100.912 24.4935 100.832 24.4688C100.763 24.4478 100.922 24.4826 101.115 24.6932L96.6839 28.7388ZM123.123 40H120.123V43H123.123V40ZM123.123 35.644H126.123V32.644H123.123V35.644ZM112.575 35.644H109.575V38.644H112.575V35.644ZM112.575 31.216L110.226 29.3491L109.575 30.1688V31.216H112.575ZM124.023 16.816V13.816H122.575L121.674 14.9491L124.023 16.816ZM129.891 16.816H132.891V13.816H129.891V16.816ZM129.891 30.172H126.891V33.172H129.891V30.172ZM131.979 30.172H134.979V27.172H131.979V30.172ZM131.979 35.644V38.644H134.979V35.644H131.979ZM129.891 35.644V32.644H126.891V35.644H129.891ZM129.891 40V43H132.891V40H129.891ZM119.091 30.46L116.78 28.5459L112.709 33.46H119.091V30.46ZM124.311 30.46V33.46H127.311V30.46H124.311ZM124.311 24.16H127.311V15.8372L122 22.2459L124.311 24.16ZM126.123 40V35.644H120.123V40H126.123ZM123.123 32.644H112.575V38.644H123.123V32.644ZM115.575 35.644V31.216H109.575V35.644H115.575ZM114.923 33.0829L126.371 18.6829L121.674 14.9491L110.226 29.3491L114.923 33.0829ZM124.023 19.816H129.891V13.816H124.023V19.816ZM126.891 16.816V30.172H132.891V16.816H126.891ZM129.891 33.172H131.979V27.172H129.891V33.172ZM128.979 30.172V35.644H134.979V30.172H128.979ZM131.979 32.644H129.891V38.644H131.979V32.644ZM126.891 35.644V40H132.891V35.644H126.891ZM129.891 37H123.123V43H129.891V37ZM119.091 33.46H124.311V27.46H119.091V33.46ZM127.311 30.46V24.16H121.311V30.46H127.311ZM122 22.2459L116.78 28.5459L121.401 32.3741L126.621 26.0741L122 22.2459Z" fill="#302D4A" mask="url(#path-2-outside-1_65_5)"/>
</svg>
