<svg width="188" height="53" viewBox="0 0 188 53" fill="none" xmlns="http://www.w3.org/2000/svg">
<rect width="188" height="53" rx="8" fill="#F90047"/>
<mask id="path-2-outside-1_65_5" maskUnits="userSpaceOnUse" x="54" y="12" width="81" height="32" fill="black">
<rect fill="white" x="54" y="12" width="81" height="32"/>
<path d="M60.879 40V23.08L57.027 23.656V18.004L67.647 16.456V40H60.879ZM78.6354 40.36C77.3394 40.36 76.2114 40.288 75.2514 40.144C74.3154 40.024 73.3914 39.796 72.4794 39.46V34.204C73.3194 34.564 74.1714 34.816 75.0354 34.96C75.9234 35.104 76.9074 35.176 77.9874 35.176C79.7634 35.176 81.0834 34.84 81.9474 34.168C82.8114 33.496 83.2434 32.692 83.2434 31.756V31.072C82.6434 31.456 81.8754 31.768 80.9394 32.008C80.0274 32.248 79.1754 32.368 78.3834 32.368C75.5274 32.368 73.4394 31.696 72.1194 30.352C70.8234 29.008 70.1754 27.1 70.1754 24.628C70.1754 23.044 70.4994 21.64 71.1474 20.416C71.7954 19.168 72.8274 18.196 74.2434 17.5C75.6594 16.804 77.5194 16.456 79.8234 16.456C83.1834 16.456 85.6434 17.248 87.2034 18.832C88.7874 20.392 89.5794 22.732 89.5794 25.852V30.316C89.5794 32.236 89.1354 33.964 88.2474 35.5C87.3834 37.012 86.1354 38.2 84.5034 39.064C82.8714 39.928 80.9154 40.36 78.6354 40.36ZM79.6794 27.544C80.2794 27.544 80.8914 27.436 81.5154 27.22C82.1394 27.004 82.7154 26.74 83.2434 26.428V24.772C83.2434 23.548 82.9554 22.66 82.3794 22.108C81.8274 21.532 80.9514 21.244 79.7514 21.244C78.5754 21.244 77.6874 21.52 77.0874 22.072C76.5114 22.624 76.2234 23.392 76.2234 24.376C76.2234 25.384 76.4754 26.164 76.9794 26.716C77.4834 27.268 78.3834 27.544 79.6794 27.544ZM99.8346 40.36C98.5386 40.36 97.4106 40.288 96.4506 40.144C95.5146 40.024 94.5906 39.796 93.6786 39.46V34.204C94.5186 34.564 95.3706 34.816 96.2346 34.96C97.1226 35.104 98.1066 35.176 99.1866 35.176C100.963 35.176 102.283 34.84 103.147 34.168C104.011 33.496 104.443 32.692 104.443 31.756V31.072C103.843 31.456 103.075 31.768 102.139 32.008C101.227 32.248 100.375 32.368 99.5826 32.368C96.7266 32.368 94.6386 31.696 93.3186 30.352C92.0226 29.008 91.3746 27.1 91.3746 24.628C91.3746 23.044 91.6986 21.64 92.3466 20.416C92.9946 19.168 94.0266 18.196 95.4426 17.5C96.8586 16.804 98.7186 16.456 101.023 16.456C104.383 16.456 106.843 17.248 108.403 18.832C109.987 20.392 110.779 22.732 110.779 25.852V30.316C110.779 32.236 110.335 33.964 109.447 35.5C108.583 37.012 107.335 38.2 105.703 39.064C104.071 39.928 102.115 40.36 99.8346 40.36ZM100.879 27.544C101.479 27.544 102.091 27.436 102.715 27.22C103.339 27.004 103.915 26.74 104.443 26.428V24.772C104.443 23.548 104.155 22.66 103.579 22.108C103.027 21.532 102.151 21.244 100.951 21.244C99.7746 21.244 98.8866 21.52 98.2866 22.072C97.7106 22.624 97.4226 23.392 97.4226 24.376C97.4226 25.384 97.6746 26.164 98.1786 26.716C98.6826 27.268 99.5826 27.544 100.879 27.544ZM121.034 40.36C119.738 40.36 118.61 40.288 117.65 40.144C116.714 40.024 115.79 39.796 114.878 39.46V34.204C115.718 34.564 116.57 34.816 117.434 34.96C118.322 35.104 119.306 35.176 120.386 35.176C122.162 35.176 123.482 34.84 124.346 34.168C125.21 33.496 125.642 32.692 125.642 31.756V31.072C125.042 31.456 124.274 31.768 123.338 32.008C122.426 32.248 121.574 32.368 120.782 32.368C117.926 32.368 115.838 31.696 114.518 30.352C113.222 29.008 112.574 27.1 112.574 24.628C112.574 23.044 112.898 21.64 113.546 20.416C114.194 19.168 115.226 18.196 116.642 17.5C118.058 16.804 119.918 16.456 122.222 16.456C125.582 16.456 128.042 17.248 129.602 18.832C131.186 20.392 131.978 22.732 131.978 25.852V30.316C131.978 32.236 131.534 33.964 130.646 35.5C129.782 37.012 128.534 38.2 126.902 39.064C125.27 39.928 123.314 40.36 121.034 40.36ZM122.078 27.544C122.678 27.544 123.29 27.436 123.914 27.22C124.538 27.004 125.114 26.74 125.642 26.428V24.772C125.642 23.548 125.354 22.66 124.778 22.108C124.226 21.532 123.35 21.244 122.15 21.244C120.974 21.244 120.086 21.52 119.486 22.072C118.91 22.624 118.622 23.392 118.622 24.376C118.622 25.384 118.874 26.164 119.378 26.716C119.882 27.268 120.782 27.544 122.078 27.544Z"/>
</mask>
<path d="M60.879 40V23.08L57.027 23.656V18.004L67.647 16.456V40H60.879ZM78.6354 40.36C77.3394 40.36 76.2114 40.288 75.2514 40.144C74.3154 40.024 73.3914 39.796 72.4794 39.46V34.204C73.3194 34.564 74.1714 34.816 75.0354 34.96C75.9234 35.104 76.9074 35.176 77.9874 35.176C79.7634 35.176 81.0834 34.84 81.9474 34.168C82.8114 33.496 83.2434 32.692 83.2434 31.756V31.072C82.6434 31.456 81.8754 31.768 80.9394 32.008C80.0274 32.248 79.1754 32.368 78.3834 32.368C75.5274 32.368 73.4394 31.696 72.1194 30.352C70.8234 29.008 70.1754 27.1 70.1754 24.628C70.1754 23.044 70.4994 21.64 71.1474 20.416C71.7954 19.168 72.8274 18.196 74.2434 17.5C75.6594 16.804 77.5194 16.456 79.8234 16.456C83.1834 16.456 85.6434 17.248 87.2034 18.832C88.7874 20.392 89.5794 22.732 89.5794 25.852V30.316C89.5794 32.236 89.1354 33.964 88.2474 35.5C87.3834 37.012 86.1354 38.2 84.5034 39.064C82.8714 39.928 80.9154 40.36 78.6354 40.36ZM79.6794 27.544C80.2794 27.544 80.8914 27.436 81.5154 27.22C82.1394 27.004 82.7154 26.74 83.2434 26.428V24.772C83.2434 23.548 82.9554 22.66 82.3794 22.108C81.8274 21.532 80.9514 21.244 79.7514 21.244C78.5754 21.244 77.6874 21.52 77.0874 22.072C76.5114 22.624 76.2234 23.392 76.2234 24.376C76.2234 25.384 76.4754 26.164 76.9794 26.716C77.4834 27.268 78.3834 27.544 79.6794 27.544ZM99.8346 40.36C98.5386 40.36 97.4106 40.288 96.4506 40.144C95.5146 40.024 94.5906 39.796 93.6786 39.46V34.204C94.5186 34.564 95.3706 34.816 96.2346 34.96C97.1226 35.104 98.1066 35.176 99.1866 35.176C100.963 35.176 102.283 34.84 103.147 34.168C104.011 33.496 104.443 32.692 104.443 31.756V31.072C103.843 31.456 103.075 31.768 102.139 32.008C101.227 32.248 100.375 32.368 99.5826 32.368C96.7266 32.368 94.6386 31.696 93.3186 30.352C92.0226 29.008 91.3746 27.1 91.3746 24.628C91.3746 23.044 91.6986 21.64 92.3466 20.416C92.9946 19.168 94.0266 18.196 95.4426 17.5C96.8586 16.804 98.7186 16.456 101.023 16.456C104.383 16.456 106.843 17.248 108.403 18.832C109.987 20.392 110.779 22.732 110.779 25.852V30.316C110.779 32.236 110.335 33.964 109.447 35.5C108.583 37.012 107.335 38.2 105.703 39.064C104.071 39.928 102.115 40.36 99.8346 40.36ZM100.879 27.544C101.479 27.544 102.091 27.436 102.715 27.22C103.339 27.004 103.915 26.74 104.443 26.428V24.772C104.443 23.548 104.155 22.66 103.579 22.108C103.027 21.532 102.151 21.244 100.951 21.244C99.7746 21.244 98.8866 21.52 98.2866 22.072C97.7106 22.624 97.4226 23.392 97.4226 24.376C97.4226 25.384 97.6746 26.164 98.1786 26.716C98.6826 27.268 99.5826 27.544 100.879 27.544ZM121.034 40.36C119.738 40.36 118.61 40.288 117.65 40.144C116.714 40.024 115.79 39.796 114.878 39.46V34.204C115.718 34.564 116.57 34.816 117.434 34.96C118.322 35.104 119.306 35.176 120.386 35.176C122.162 35.176 123.482 34.84 124.346 34.168C125.21 33.496 125.642 32.692 125.642 31.756V31.072C125.042 31.456 124.274 31.768 123.338 32.008C122.426 32.248 121.574 32.368 120.782 32.368C117.926 32.368 115.838 31.696 114.518 30.352C113.222 29.008 112.574 27.1 112.574 24.628C112.574 23.044 112.898 21.64 113.546 20.416C114.194 19.168 115.226 18.196 116.642 17.5C118.058 16.804 119.918 16.456 122.222 16.456C125.582 16.456 128.042 17.248 129.602 18.832C131.186 20.392 131.978 22.732 131.978 25.852V30.316C131.978 32.236 131.534 33.964 130.646 35.5C129.782 37.012 128.534 38.2 126.902 39.064C125.27 39.928 123.314 40.36 121.034 40.36ZM122.078 27.544C122.678 27.544 123.29 27.436 123.914 27.22C124.538 27.004 125.114 26.74 125.642 26.428V24.772C125.642 23.548 125.354 22.66 124.778 22.108C124.226 21.532 123.35 21.244 122.15 21.244C120.974 21.244 120.086 21.52 119.486 22.072C118.91 22.624 118.622 23.392 118.622 24.376C118.622 25.384 118.874 26.164 119.378 26.716C119.882 27.268 120.782 27.544 122.078 27.544Z" fill="#FFFEFE"/>
<path d="M60.879 40H57.879V43H60.879V40ZM60.879 23.08H63.879V19.598L60.4353 20.113L60.879 23.08ZM57.027 23.656H54.027V27.138L57.4706 26.623L57.027 23.656ZM57.027 18.004L56.5942 15.0354L54.027 15.4096V18.004H57.027ZM67.647 16.456H70.647V12.987L67.2142 13.4874L67.647 16.456ZM67.647 40V43H70.647V40H67.647ZM63.879 40V23.08H57.879V40H63.879ZM60.4353 20.113L56.5833 20.689L57.4706 26.623L61.3226 26.047L60.4353 20.113ZM60.027 23.656V18.004H54.027V23.656H60.027ZM57.4597 20.9726L68.0797 19.4246L67.2142 13.4874L56.5942 15.0354L57.4597 20.9726ZM64.647 16.456V40H70.647V16.456H64.647ZM67.647 37H60.879V43H67.647V37ZM75.2514 40.144L75.6964 37.1772L75.6647 37.1724L75.6329 37.1684L75.2514 40.144ZM72.4794 39.46H69.4794V41.5519L71.4423 42.275L72.4794 39.46ZM72.4794 34.204L73.6611 31.4466L69.4794 29.6544V34.204H72.4794ZM75.0354 34.96L74.5422 37.9192L74.5552 37.9213L75.0354 34.96ZM81.9474 34.168L83.7892 36.5361L83.7892 36.5361L81.9474 34.168ZM83.2434 31.072H86.2434V25.5902L81.6262 28.5452L83.2434 31.072ZM80.9394 32.008L80.1943 29.102L80.1851 29.1044L80.1759 29.1068L80.9394 32.008ZM72.1194 30.352L69.9599 32.4344L69.9694 32.4443L69.979 32.4541L72.1194 30.352ZM71.1474 20.416L73.7988 21.8197L73.8044 21.8091L73.8099 21.7984L71.1474 20.416ZM74.2434 17.5L75.5667 20.1923L75.5667 20.1923L74.2434 17.5ZM87.2034 18.832L85.0659 20.9371L85.082 20.9534L85.0983 20.9695L87.2034 18.832ZM88.2474 35.5L85.6502 33.9985L85.6464 34.005L85.6427 34.0116L88.2474 35.5ZM84.5034 39.064L83.0997 36.4126L83.0997 36.4126L84.5034 39.064ZM81.5154 27.22L80.5341 24.385L80.5341 24.385L81.5154 27.22ZM83.2434 26.428L84.7696 29.0108L86.2434 28.1399V26.428H83.2434ZM82.3794 22.108L80.2134 24.1837L80.2576 24.2298L80.3037 24.274L82.3794 22.108ZM77.0874 22.072L75.0562 19.8642L75.0337 19.8849L75.0117 19.906L77.0874 22.072ZM76.9794 26.716L79.1948 24.6932L79.1948 24.6932L76.9794 26.716ZM78.6354 37.36C77.4423 37.36 76.4697 37.2932 75.6964 37.1772L74.8064 43.1108C75.9531 43.2828 77.2364 43.36 78.6354 43.36V37.36ZM75.6329 37.1684C74.9274 37.0779 74.2231 36.9053 73.5165 36.645L71.4423 42.275C72.5597 42.6867 73.7034 42.9701 74.8699 43.1196L75.6329 37.1684ZM75.4794 39.46V34.204H69.4794V39.46H75.4794ZM71.2976 36.9614C72.3487 37.4119 73.4314 37.734 74.5422 37.9192L75.5286 32.0008C74.9114 31.898 74.2901 31.7161 73.6611 31.4466L71.2976 36.9614ZM74.5552 37.9213C75.6297 38.0956 76.7773 38.176 77.9874 38.176V32.176C77.0374 32.176 76.2171 32.1124 75.5156 31.9987L74.5552 37.9213ZM77.9874 38.176C80.0465 38.176 82.1597 37.8034 83.7892 36.5361L80.1056 31.7999C80.007 31.8766 79.4802 32.176 77.9874 32.176V38.176ZM83.7892 36.5361C85.2446 35.4041 86.2434 33.7811 86.2434 31.756H80.2434C80.2434 31.7571 80.2435 31.7396 80.2508 31.7104C80.2581 31.6808 80.2685 31.6563 80.2767 31.6411C80.294 31.6088 80.2721 31.6705 80.1056 31.7999L83.7892 36.5361ZM86.2434 31.756V31.072H80.2434V31.756H86.2434ZM81.6262 28.5452C81.3715 28.7082 80.9237 28.915 80.1943 29.102L81.6845 34.914C82.827 34.621 83.9153 34.2038 84.8606 33.5988L81.6262 28.5452ZM80.1759 29.1068C79.4673 29.2933 78.8743 29.368 78.3834 29.368V35.368C79.4765 35.368 80.5875 35.2027 81.7029 34.9092L80.1759 29.1068ZM78.3834 29.368C75.9225 29.368 74.7818 28.7814 74.2597 28.2499L69.979 32.4541C72.097 34.6106 75.1323 35.368 78.3834 35.368V29.368ZM74.2789 28.2696C73.6786 27.647 73.1754 26.5824 73.1754 24.628H67.1754C67.1754 27.6176 67.9682 30.369 69.9599 32.4344L74.2789 28.2696ZM73.1754 24.628C73.1754 23.4624 73.4107 22.5526 73.7988 21.8197L68.496 19.0123C67.588 20.7274 67.1754 22.6256 67.1754 24.628H73.1754ZM73.8099 21.7984C74.1272 21.1874 74.652 20.6419 75.5667 20.1923L72.92 14.8077C71.0027 15.7501 69.4636 17.1486 68.4849 19.0336L73.8099 21.7984ZM75.5667 20.1923C76.4258 19.7701 77.7831 19.456 79.8234 19.456V13.456C77.2557 13.456 74.893 13.8379 72.92 14.8077L75.5667 20.1923ZM79.8234 19.456C82.7856 19.456 84.302 20.1614 85.0659 20.9371L89.3408 16.7269C86.9848 14.3346 83.5812 13.456 79.8234 13.456V19.456ZM85.0983 20.9695C85.9114 21.7702 86.5794 23.2061 86.5794 25.852H92.5794C92.5794 22.2579 91.6634 19.0138 89.3085 16.6945L85.0983 20.9695ZM86.5794 25.852V30.316H92.5794V25.852H86.5794ZM86.5794 30.316C86.5794 31.7535 86.2528 32.9561 85.6502 33.9985L90.8446 37.0015C92.018 34.9719 92.5794 32.7185 92.5794 30.316H86.5794ZM85.6427 34.0116C85.078 34.9997 84.261 35.7978 83.0997 36.4126L85.9071 41.7154C88.0098 40.6022 89.6887 39.0243 90.8521 36.9884L85.6427 34.0116ZM83.0997 36.4126C81.9902 37 80.5392 37.36 78.6354 37.36V43.36C81.2916 43.36 83.7526 42.856 85.9071 41.7154L83.0997 36.4126ZM79.6794 30.544C80.6453 30.544 81.5887 30.3693 82.4967 30.055L80.5341 24.385C80.1941 24.5027 79.9135 24.544 79.6794 24.544V30.544ZM82.4967 30.055C83.2959 29.7783 84.0562 29.4323 84.7696 29.0108L81.7172 23.8452C81.3746 24.0477 80.9828 24.2297 80.5341 24.385L82.4967 30.055ZM86.2434 26.428V24.772H80.2434V26.428H86.2434ZM86.2434 24.772C86.2434 23.1608 85.8733 21.3011 84.4551 19.942L80.3037 24.274C80.1774 24.153 80.1565 24.0605 80.1737 24.1135C80.196 24.1821 80.2434 24.3823 80.2434 24.772H86.2434ZM84.5454 20.0323C83.1958 18.6241 81.3595 18.244 79.7514 18.244V24.244C80.1236 24.244 80.3112 24.2901 80.3714 24.3099C80.4157 24.3245 80.3271 24.3023 80.2134 24.1837L84.5454 20.0323ZM79.7514 18.244C78.1529 18.244 76.4125 18.6164 75.0562 19.8642L79.1186 24.2798C79.0486 24.3442 79.0143 24.3405 79.0938 24.3158C79.185 24.2875 79.3893 24.244 79.7514 24.244V18.244ZM75.0117 19.906C73.7127 21.1509 73.2234 22.7781 73.2234 24.376H79.2234C79.2234 24.1738 79.2531 24.1027 79.2484 24.1154C79.2459 24.1221 79.2373 24.1423 79.2195 24.1695C79.2016 24.1969 79.1814 24.2205 79.1631 24.238L75.0117 19.906ZM73.2234 24.376C73.2234 25.8677 73.6013 27.4655 74.7639 28.7388L79.1948 24.6932C79.2592 24.7636 79.2741 24.8162 79.2671 24.7947C79.2565 24.762 79.2234 24.636 79.2234 24.376H73.2234ZM74.7639 28.7388C76.1366 30.2422 78.1232 30.544 79.6794 30.544V24.544C79.2258 24.544 78.9924 24.4935 78.912 24.4688C78.8434 24.4478 79.0025 24.4826 79.1948 24.6932L74.7639 28.7388ZM96.4506 40.144L96.8956 37.1772L96.8639 37.1724L96.8321 37.1684L96.4506 40.144ZM93.6786 39.46H90.6786V41.5519L92.6415 42.275L93.6786 39.46ZM93.6786 34.204L94.8604 31.4466L90.6786 29.6544V34.204H93.6786ZM96.2346 34.96L95.7414 37.9192L95.7544 37.9213L96.2346 34.96ZM103.147 34.168L104.988 36.5361L104.988 36.5361L103.147 34.168ZM104.443 31.072H107.443V25.5902L102.825 28.5452L104.443 31.072ZM102.139 32.008L101.393 29.102L101.384 29.1044L101.375 29.1068L102.139 32.008ZM93.3186 30.352L91.1591 32.4344L91.1686 32.4443L91.1783 32.4541L93.3186 30.352ZM92.3466 20.416L94.998 21.8197L95.0036 21.8091L95.0091 21.7984L92.3466 20.416ZM95.4426 17.5L96.766 20.1923L96.766 20.1923L95.4426 17.5ZM108.403 18.832L106.265 20.9371L106.281 20.9534L106.298 20.9695L108.403 18.832ZM109.447 35.5L106.849 33.9985L106.846 34.005L106.842 34.0116L109.447 35.5ZM105.703 39.064L104.299 36.4126L104.299 36.4126L105.703 39.064ZM102.715 27.22L101.733 24.385L101.733 24.385L102.715 27.22ZM104.443 26.428L105.969 29.0108L107.443 28.1399V26.428H104.443ZM103.579 22.108L101.413 24.1837L101.457 24.2298L101.503 24.274L103.579 22.108ZM98.2866 22.072L96.2554 19.8642L96.233 19.8849L96.2109 19.906L98.2866 22.072ZM98.1786 26.716L100.394 24.6932L100.394 24.6932L98.1786 26.716ZM99.8346 37.36C98.6416 37.36 97.6689 37.2932 96.8956 37.1772L96.0056 43.1108C97.1523 43.2828 98.4357 43.36 99.8346 43.36V37.36ZM96.8321 37.1684C96.1266 37.0779 95.4223 36.9053 94.7157 36.645L92.6415 42.275C93.7589 42.6867 94.9026 42.9701 96.0691 43.1196L96.8321 37.1684ZM96.6786 39.46V34.204H90.6786V39.46H96.6786ZM92.4969 36.9614C93.5479 37.4119 94.6306 37.734 95.7414 37.9192L96.7278 32.0008C96.1106 31.898 95.4893 31.7161 94.8604 31.4466L92.4969 36.9614ZM95.7544 37.9213C96.8289 38.0956 97.9766 38.176 99.1866 38.176V32.176C98.2367 32.176 97.4163 32.1124 96.7148 31.9987L95.7544 37.9213ZM99.1866 38.176C101.246 38.176 103.359 37.8034 104.988 36.5361L101.305 31.7999C101.206 31.8766 100.679 32.176 99.1866 32.176V38.176ZM104.988 36.5361C106.444 35.4041 107.443 33.7811 107.443 31.756H101.443C101.443 31.7571 101.443 31.7396 101.45 31.7104C101.457 31.6808 101.468 31.6563 101.476 31.6411C101.493 31.6088 101.471 31.6705 101.305 31.7999L104.988 36.5361ZM107.443 31.756V31.072H101.443V31.756H107.443ZM102.825 28.5452C102.571 28.7082 102.123 28.915 101.393 29.102L102.884 34.914C104.026 34.621 105.115 34.2038 106.06 33.5988L102.825 28.5452ZM101.375 29.1068C100.666 29.2933 100.073 29.368 99.5826 29.368V35.368C100.676 35.368 101.787 35.2027 102.902 34.9092L101.375 29.1068ZM99.5826 29.368C97.1217 29.368 95.981 28.7814 95.459 28.2499L91.1783 32.4541C93.2962 34.6106 96.3315 35.368 99.5826 35.368V29.368ZM95.4781 28.2696C94.8778 27.647 94.3746 26.5824 94.3746 24.628H88.3746C88.3746 27.6176 89.1674 30.369 91.1591 32.4344L95.4781 28.2696ZM94.3746 24.628C94.3746 23.4624 94.61 22.5526 94.998 21.8197L89.6952 19.0123C88.7873 20.7274 88.3746 22.6256 88.3746 24.628H94.3746ZM95.0091 21.7984C95.3264 21.1874 95.8513 20.6419 96.766 20.1923L94.1193 14.8077C92.202 15.7501 90.6628 17.1486 89.6841 19.0336L95.0091 21.7984ZM96.766 20.1923C97.625 19.7701 98.9823 19.456 101.023 19.456V13.456C98.4549 13.456 96.0922 13.8379 94.1193 14.8077L96.766 20.1923ZM101.023 19.456C103.985 19.456 105.501 20.1614 106.265 20.9371L110.54 16.7269C108.184 14.3346 104.78 13.456 101.023 13.456V19.456ZM106.298 20.9695C107.111 21.7702 107.779 23.2061 107.779 25.852H113.779C113.779 22.2579 112.863 19.0138 110.508 16.6945L106.298 20.9695ZM107.779 25.852V30.316H113.779V25.852H107.779ZM107.779 30.316C107.779 31.7535 107.452 32.9561 106.849 33.9985L112.044 37.0015C113.217 34.9719 113.779 32.7185 113.779 30.316H107.779ZM106.842 34.0116C106.277 34.9997 105.46 35.7978 104.299 36.4126L107.106 41.7154C109.209 40.6022 110.888 39.0243 112.051 36.9884L106.842 34.0116ZM104.299 36.4126C103.189 37 101.738 37.36 99.8346 37.36V43.36C102.491 43.36 104.952 42.856 107.106 41.7154L104.299 36.4126ZM100.879 30.544C101.844 30.544 102.788 30.3693 103.696 30.055L101.733 24.385C101.393 24.5027 101.113 24.544 100.879 24.544V30.544ZM103.696 30.055C104.495 29.7783 105.255 29.4323 105.969 29.0108L102.916 23.8452C102.574 24.0477 102.182 24.2297 101.733 24.385L103.696 30.055ZM107.443 26.428V24.772H101.443V26.428H107.443ZM107.443 24.772C107.443 23.1608 107.072 21.3011 105.654 19.942L101.503 24.274C101.377 24.153 101.356 24.0605 101.373 24.1135C101.395 24.1821 101.443 24.3823 101.443 24.772H107.443ZM105.745 20.0323C104.395 18.6241 102.559 18.244 100.951 18.244V24.244C101.323 24.244 101.51 24.2901 101.571 24.3099C101.615 24.3245 101.526 24.3023 101.413 24.1837L105.745 20.0323ZM100.951 18.244C99.3521 18.244 97.6117 18.6164 96.2554 19.8642L100.318 24.2798C100.248 24.3442 100.214 24.3405 100.293 24.3158C100.384 24.2875 100.589 24.244 100.951 24.244V18.244ZM96.2109 19.906C94.9119 21.1509 94.4226 22.7781 94.4226 24.376H100.423C100.423 24.1738 100.452 24.1027 100.448 24.1154C100.445 24.1221 100.436 24.1423 100.419 24.1695C100.401 24.1969 100.381 24.2205 100.362 24.238L96.2109 19.906ZM94.4226 24.376C94.4226 25.8677 94.8005 27.4655 95.9632 28.7388L100.394 24.6932C100.458 24.7636 100.473 24.8162 100.466 24.7947C100.456 24.762 100.423 24.636 100.423 24.376H94.4226ZM95.9632 28.7388C97.3358 30.2422 99.3224 30.544 100.879 30.544V24.544C100.425 24.544 100.192 24.4935 100.111 24.4688C100.043 24.4478 100.202 24.4826 100.394 24.6932L95.9632 28.7388ZM117.65 40.144L118.095 37.1772L118.063 37.1724L118.031 37.1684L117.65 40.144ZM114.878 39.46H111.878V41.5519L113.841 42.275L114.878 39.46ZM114.878 34.204L116.06 31.4466L111.878 29.6544V34.204H114.878ZM117.434 34.96L116.941 37.9192L116.954 37.9213L117.434 34.96ZM124.346 34.168L126.188 36.5361L126.188 36.5361L124.346 34.168ZM125.642 31.072H128.642V25.5902L124.025 28.5452L125.642 31.072ZM123.338 32.008L122.593 29.102L122.584 29.1044L122.574 29.1068L123.338 32.008ZM114.518 30.352L112.358 32.4344L112.368 32.4443L112.377 32.4541L114.518 30.352ZM113.546 20.416L116.197 21.8197L116.203 21.8091L116.208 21.7984L113.546 20.416ZM116.642 17.5L117.965 20.1923L117.965 20.1923L116.642 17.5ZM129.602 18.832L127.464 20.9371L127.48 20.9534L127.497 20.9695L129.602 18.832ZM130.646 35.5L128.049 33.9985L128.045 34.005L128.041 34.0116L130.646 35.5ZM126.902 39.064L125.498 36.4126L125.498 36.4126L126.902 39.064ZM123.914 27.22L122.932 24.385L122.932 24.385L123.914 27.22ZM125.642 26.428L127.168 29.0108L128.642 28.1399V26.428H125.642ZM124.778 22.108L122.612 24.1837L122.656 24.2298L122.702 24.274L124.778 22.108ZM119.486 22.072L117.455 19.8642L117.432 19.8849L117.41 19.906L119.486 22.072ZM119.378 26.716L121.593 24.6932L121.593 24.6932L119.378 26.716ZM121.034 37.36C119.841 37.36 118.868 37.2932 118.095 37.1772L117.205 43.1108C118.352 43.2828 119.635 43.36 121.034 43.36V37.36ZM118.031 37.1684C117.326 37.0779 116.621 36.9053 115.915 36.645L113.841 42.275C114.958 42.6867 116.102 42.9701 117.268 43.1196L118.031 37.1684ZM117.878 39.46V34.204H111.878V39.46H117.878ZM113.696 36.9614C114.747 37.4119 115.83 37.734 116.941 37.9192L117.927 32.0008C117.31 31.898 116.689 31.7161 116.06 31.4466L113.696 36.9614ZM116.954 37.9213C118.028 38.0956 119.176 38.176 120.386 38.176V32.176C119.436 32.176 118.616 32.1124 117.914 31.9987L116.954 37.9213ZM120.386 38.176C122.445 38.176 124.558 37.8034 126.188 36.5361L122.504 31.7999C122.405 31.8766 121.879 32.176 120.386 32.176V38.176ZM126.188 36.5361C127.643 35.4041 128.642 33.7811 128.642 31.756H122.642C122.642 31.7571 122.642 31.7396 122.649 31.7104C122.657 31.6808 122.667 31.6563 122.675 31.6411C122.692 31.6088 122.67 31.6705 122.504 31.7999L126.188 36.5361ZM128.642 31.756V31.072H122.642V31.756H128.642ZM124.025 28.5452C123.77 28.7082 123.322 28.915 122.593 29.102L124.083 34.914C125.225 34.621 126.314 34.2038 127.259 33.5988L124.025 28.5452ZM122.574 29.1068C121.866 29.2933 121.273 29.368 120.782 29.368V35.368C121.875 35.368 122.986 35.2027 124.101 34.9092L122.574 29.1068ZM120.782 29.368C118.321 29.368 117.18 28.7814 116.658 28.2499L112.377 32.4541C114.495 34.6106 117.531 35.368 120.782 35.368V29.368ZM116.677 28.2696C116.077 27.647 115.574 26.5824 115.574 24.628H109.574C109.574 27.6176 110.367 30.369 112.358 32.4344L116.677 28.2696ZM115.574 24.628C115.574 23.4624 115.809 22.5526 116.197 21.8197L110.894 19.0123C109.986 20.7274 109.574 22.6256 109.574 24.628H115.574ZM116.208 21.7984C116.526 21.1874 117.05 20.6419 117.965 20.1923L115.318 14.8077C113.401 15.7501 111.862 17.1486 110.883 19.0336L116.208 21.7984ZM117.965 20.1923C118.824 19.7701 120.182 19.456 122.222 19.456V13.456C119.654 13.456 117.291 13.8379 115.318 14.8077L117.965 20.1923ZM122.222 19.456C125.184 19.456 126.7 20.1614 127.464 20.9371L131.739 16.7269C129.383 14.3346 125.98 13.456 122.222 13.456V19.456ZM127.497 20.9695C128.31 21.7702 128.978 23.2061 128.978 25.852H134.978C134.978 22.2579 134.062 19.0138 131.707 16.6945L127.497 20.9695ZM128.978 25.852V30.316H134.978V25.852H128.978ZM128.978 30.316C128.978 31.7535 128.651 32.9561 128.049 33.9985L133.243 37.0015C134.416 34.9719 134.978 32.7185 134.978 30.316H128.978ZM128.041 34.0116C127.476 34.9997 126.659 35.7978 125.498 36.4126L128.305 41.7154C130.408 40.6022 132.087 39.0243 133.251 36.9884L128.041 34.0116ZM125.498 36.4126C124.389 37 122.938 37.36 121.034 37.36V43.36C123.69 43.36 126.151 42.856 128.305 41.7154L125.498 36.4126ZM122.078 30.544C123.044 30.544 123.987 30.3693 124.895 30.055L122.932 24.385C122.593 24.5027 122.312 24.544 122.078 24.544V30.544ZM124.895 30.055C125.694 29.7783 126.455 29.4323 127.168 29.0108L124.116 23.8452C123.773 24.0477 123.381 24.2297 122.932 24.385L124.895 30.055ZM128.642 26.428V24.772H122.642V26.428H128.642ZM128.642 24.772C128.642 23.1608 128.272 21.3011 126.854 19.942L122.702 24.274C122.576 24.153 122.555 24.0605 122.572 24.1135C122.594 24.1821 122.642 24.3823 122.642 24.772H128.642ZM126.944 20.0323C125.594 18.6241 123.758 18.244 122.15 18.244V24.244C122.522 24.244 122.71 24.2901 122.77 24.3099C122.814 24.3245 122.726 24.3023 122.612 24.1837L126.944 20.0323ZM122.15 18.244C120.551 18.244 118.811 18.6164 117.455 19.8642L121.517 24.2798C121.447 24.3442 121.413 24.3405 121.492 24.3158C121.583 24.2875 121.788 24.244 122.15 24.244V18.244ZM117.41 19.906C116.111 21.1509 115.622 22.7781 115.622 24.376H121.622C121.622 24.1738 121.652 24.1027 121.647 24.1154C121.644 24.1221 121.636 24.1423 121.618 24.1695C121.6 24.1969 121.58 24.2205 121.562 24.238L117.41 19.906ZM115.622 24.376C115.622 25.8677 116 27.4655 117.162 28.7388L121.593 24.6932C121.658 24.7636 121.672 24.8162 121.666 24.7947C121.655 24.762 121.622 24.636 121.622 24.376H115.622ZM117.162 28.7388C118.535 30.2422 120.522 30.544 122.078 30.544V24.544C121.624 24.544 121.391 24.4935 121.31 24.4688C121.242 24.4478 121.401 24.4826 121.593 24.6932L117.162 28.7388Z" fill="#302D4A" mask="url(#path-2-outside-1_65_5)"/>
</svg>
