<svg width="188" height="53" viewBox="0 0 188 53" fill="none" xmlns="http://www.w3.org/2000/svg">
<rect width="188" height="53" rx="8" fill="#02DED8"/>
<mask id="path-2-outside-1_65_5" maskUnits="userSpaceOnUse" x="49" y="13" width="92" height="31" fill="black">
<rect fill="white" x="49" y="13" width="92" height="31"/>
<path d="M52.1402 40V36.904C52.8122 35.632 53.6282 34.492 54.5882 33.484C55.5482 32.476 56.6162 31.444 57.7922 30.388C58.7762 29.5 59.5682 28.768 60.1682 28.192C60.7922 27.616 61.2482 27.076 61.5362 26.572C61.8482 26.044 62.0042 25.444 62.0042 24.772C62.0042 23.068 60.8882 22.216 58.6562 22.216C57.6242 22.216 56.6162 22.336 55.6322 22.576C54.6722 22.816 53.7602 23.116 52.8962 23.476V17.716C53.8802 17.332 55.0322 17.032 56.3522 16.816C57.6722 16.576 59.0042 16.456 60.3482 16.456C63.2282 16.456 65.3762 17.14 66.7922 18.508C68.2082 19.852 68.9162 21.664 68.9162 23.944C68.9162 25.024 68.7842 25.96 68.5202 26.752C68.2802 27.52 67.8962 28.228 67.3682 28.876C66.8402 29.524 66.1562 30.22 65.3162 30.964C64.5722 31.612 63.8402 32.26 63.1202 32.908C62.4002 33.556 61.8242 34.192 61.3922 34.816H69.1322V40H52.1402ZM82.0368 40.36C79.3728 40.36 77.2248 39.904 75.5928 38.992C73.9848 38.056 72.8088 36.7 72.0648 34.924C71.3208 33.148 70.9488 30.976 70.9488 28.408C70.9488 25.84 71.3208 23.668 72.0648 21.892C72.8088 20.116 73.9848 18.772 75.5928 17.86C77.2248 16.924 79.3728 16.456 82.0368 16.456C86.0208 16.456 88.8648 17.488 90.5688 19.552C92.2728 21.592 93.1248 24.544 93.1248 28.408C93.1248 32.248 92.2728 35.2 90.5688 37.264C88.8648 39.328 86.0208 40.36 82.0368 40.36ZM82.0368 34.6C83.5968 34.6 84.6768 34.084 85.2768 33.052C85.9008 31.996 86.2128 30.448 86.2128 28.408C86.2128 26.344 85.9008 24.796 85.2768 23.764C84.6768 22.732 83.5968 22.216 82.0368 22.216C80.4768 22.216 79.3848 22.732 78.7608 23.764C78.1608 24.796 77.8608 26.344 77.8608 28.408C77.8608 30.448 78.1608 31.996 78.7608 33.052C79.3848 34.084 80.4768 34.6 82.0368 34.6ZM106.013 40.36C103.349 40.36 101.201 39.904 99.5694 38.992C97.9614 38.056 96.7854 36.7 96.0414 34.924C95.2974 33.148 94.9254 30.976 94.9254 28.408C94.9254 25.84 95.2974 23.668 96.0414 21.892C96.7854 20.116 97.9614 18.772 99.5694 17.86C101.201 16.924 103.349 16.456 106.013 16.456C109.997 16.456 112.841 17.488 114.545 19.552C116.249 21.592 117.101 24.544 117.101 28.408C117.101 32.248 116.249 35.2 114.545 37.264C112.841 39.328 109.997 40.36 106.013 40.36ZM106.013 34.6C107.573 34.6 108.653 34.084 109.253 33.052C109.877 31.996 110.189 30.448 110.189 28.408C110.189 26.344 109.877 24.796 109.253 23.764C108.653 22.732 107.573 22.216 106.013 22.216C104.453 22.216 103.361 22.732 102.737 23.764C102.137 24.796 101.837 26.344 101.837 28.408C101.837 30.448 102.137 31.996 102.737 33.052C103.361 34.084 104.453 34.6 106.013 34.6ZM128.73 40V35.644H118.182V31.216L129.63 16.816H135.498V30.172H137.586V35.644H135.498V40H128.73ZM124.698 30.46H129.918V24.16L124.698 30.46Z"/>
</mask>
<path d="M52.1402 40V36.904C52.8122 35.632 53.6282 34.492 54.5882 33.484C55.5482 32.476 56.6162 31.444 57.7922 30.388C58.7762 29.5 59.5682 28.768 60.1682 28.192C60.7922 27.616 61.2482 27.076 61.5362 26.572C61.8482 26.044 62.0042 25.444 62.0042 24.772C62.0042 23.068 60.8882 22.216 58.6562 22.216C57.6242 22.216 56.6162 22.336 55.6322 22.576C54.6722 22.816 53.7602 23.116 52.8962 23.476V17.716C53.8802 17.332 55.0322 17.032 56.3522 16.816C57.6722 16.576 59.0042 16.456 60.3482 16.456C63.2282 16.456 65.3762 17.14 66.7922 18.508C68.2082 19.852 68.9162 21.664 68.9162 23.944C68.9162 25.024 68.7842 25.96 68.5202 26.752C68.2802 27.52 67.8962 28.228 67.3682 28.876C66.8402 29.524 66.1562 30.22 65.3162 30.964C64.5722 31.612 63.8402 32.26 63.1202 32.908C62.4002 33.556 61.8242 34.192 61.3922 34.816H69.1322V40H52.1402ZM82.0368 40.36C79.3728 40.36 77.2248 39.904 75.5928 38.992C73.9848 38.056 72.8088 36.7 72.0648 34.924C71.3208 33.148 70.9488 30.976 70.9488 28.408C70.9488 25.84 71.3208 23.668 72.0648 21.892C72.8088 20.116 73.9848 18.772 75.5928 17.86C77.2248 16.924 79.3728 16.456 82.0368 16.456C86.0208 16.456 88.8648 17.488 90.5688 19.552C92.2728 21.592 93.1248 24.544 93.1248 28.408C93.1248 32.248 92.2728 35.2 90.5688 37.264C88.8648 39.328 86.0208 40.36 82.0368 40.36ZM82.0368 34.6C83.5968 34.6 84.6768 34.084 85.2768 33.052C85.9008 31.996 86.2128 30.448 86.2128 28.408C86.2128 26.344 85.9008 24.796 85.2768 23.764C84.6768 22.732 83.5968 22.216 82.0368 22.216C80.4768 22.216 79.3848 22.732 78.7608 23.764C78.1608 24.796 77.8608 26.344 77.8608 28.408C77.8608 30.448 78.1608 31.996 78.7608 33.052C79.3848 34.084 80.4768 34.6 82.0368 34.6ZM106.013 40.36C103.349 40.36 101.201 39.904 99.5694 38.992C97.9614 38.056 96.7854 36.7 96.0414 34.924C95.2974 33.148 94.9254 30.976 94.9254 28.408C94.9254 25.84 95.2974 23.668 96.0414 21.892C96.7854 20.116 97.9614 18.772 99.5694 17.86C101.201 16.924 103.349 16.456 106.013 16.456C109.997 16.456 112.841 17.488 114.545 19.552C116.249 21.592 117.101 24.544 117.101 28.408C117.101 32.248 116.249 35.2 114.545 37.264C112.841 39.328 109.997 40.36 106.013 40.36ZM106.013 34.6C107.573 34.6 108.653 34.084 109.253 33.052C109.877 31.996 110.189 30.448 110.189 28.408C110.189 26.344 109.877 24.796 109.253 23.764C108.653 22.732 107.573 22.216 106.013 22.216C104.453 22.216 103.361 22.732 102.737 23.764C102.137 24.796 101.837 26.344 101.837 28.408C101.837 30.448 102.137 31.996 102.737 33.052C103.361 34.084 104.453 34.6 106.013 34.6ZM128.73 40V35.644H118.182V31.216L129.63 16.816H135.498V30.172H137.586V35.644H135.498V40H128.73ZM124.698 30.46H129.918V24.16L124.698 30.46Z" fill="#FFFEFE"/>
<path d="M52.1402 40H49.1402V43H52.1402V40ZM52.1402 36.904L49.4877 35.5026L49.1402 36.1603V36.904H52.1402ZM57.7922 30.388L59.7966 32.6202L59.8021 32.6152L57.7922 30.388ZM60.1682 28.192L58.1334 25.9876L58.1118 26.0075L58.0906 26.0278L60.1682 28.192ZM61.5362 26.572L58.9535 25.0458L58.9423 25.0646L58.9315 25.0836L61.5362 26.572ZM55.6322 22.576L54.9214 19.6614L54.913 19.6635L54.9046 19.6656L55.6322 22.576ZM52.8962 23.476H49.8962V27.976L54.0501 26.2452L52.8962 23.476ZM52.8962 17.716L51.8056 14.9213L49.8962 15.6664V17.716H52.8962ZM56.3522 16.816L56.8367 19.7766L56.8628 19.7723L56.8889 19.7676L56.3522 16.816ZM66.7922 18.508L64.7078 20.6656L64.7173 20.6748L64.727 20.6839L66.7922 18.508ZM68.5202 26.752L65.6742 25.8033L65.6652 25.8302L65.6568 25.8572L68.5202 26.752ZM67.3682 28.876L65.0425 26.981L65.0425 26.981L67.3682 28.876ZM65.3162 30.964L67.2866 33.2262L67.296 33.218L67.3053 33.2098L65.3162 30.964ZM63.1202 32.908L61.1133 30.6781L61.1133 30.6781L63.1202 32.908ZM61.3922 34.816L58.9257 33.1084L55.6665 37.816H61.3922V34.816ZM69.1322 34.816H72.1322V31.816H69.1322V34.816ZM69.1322 40V43H72.1322V40H69.1322ZM55.1402 40V36.904H49.1402V40H55.1402ZM54.7928 38.3054C55.3405 37.2687 55.9969 36.3549 56.7606 35.553L52.4158 31.415C51.2596 32.6291 50.284 33.9953 49.4877 35.5026L54.7928 38.3054ZM56.7606 35.553C57.6602 34.6085 58.6711 33.6308 59.7966 32.6201L55.7879 28.1559C54.5614 29.2572 53.4363 30.3435 52.4158 31.415L56.7606 35.553ZM59.8021 32.6152C60.7973 31.7171 61.6146 30.9622 62.2458 30.3562L58.0906 26.0278C57.5219 26.5738 56.7551 27.2829 55.7823 28.1608L59.8021 32.6152ZM62.2031 30.3964C62.9582 29.6994 63.648 28.9231 64.141 28.0604L58.9315 25.0836C58.8485 25.2289 58.6263 25.5326 58.1334 25.9876L62.2031 30.3964ZM64.119 28.0982C64.7299 27.0644 65.0042 25.9279 65.0042 24.772H59.0042C59.0042 24.9601 58.9666 25.0236 58.9535 25.0458L64.119 28.0982ZM65.0042 24.772C65.0042 23.2078 64.45 21.5869 62.9877 20.4705C61.6784 19.4709 60.0692 19.216 58.6562 19.216V25.216C59.0332 25.216 59.2628 25.253 59.3811 25.2831C59.4956 25.3122 59.454 25.3213 59.3468 25.2395C59.2926 25.1981 59.232 25.1411 59.1747 25.0682C59.1173 24.9952 59.0748 24.921 59.0456 24.8542C58.9874 24.7209 59.0042 24.6697 59.0042 24.772H65.0042ZM58.6562 19.216C57.3893 19.216 56.1424 19.3636 54.9214 19.6614L56.3431 25.4906C57.09 25.3084 57.8592 25.216 58.6562 25.216V19.216ZM54.9046 19.6656C53.8075 19.9399 52.7524 20.2859 51.7424 20.7068L54.0501 26.2452C54.7681 25.9461 55.537 25.6921 56.3598 25.4864L54.9046 19.6656ZM55.8962 23.476V17.716H49.8962V23.476H55.8962ZM53.9869 20.5107C54.7315 20.2201 55.672 19.9672 56.8367 19.7766L55.8678 13.8554C54.3925 14.0968 53.0289 14.4439 51.8056 14.9213L53.9869 20.5107ZM56.8889 19.7676C58.0315 19.5599 59.1839 19.456 60.3482 19.456V13.456C58.8246 13.456 57.313 13.5921 55.8156 13.8644L56.8889 19.7676ZM60.3482 19.456C62.8078 19.456 64.0641 20.0437 64.7078 20.6656L68.8767 16.3504C66.6884 14.2363 63.6486 13.456 60.3482 13.456V19.456ZM64.727 20.6839C65.4453 21.3657 65.9162 22.3365 65.9162 23.944H71.9162C71.9162 20.9915 70.9712 18.3383 68.8575 16.3321L64.727 20.6839ZM65.9162 23.944C65.9162 24.7911 65.8113 25.392 65.6742 25.8033L71.3663 27.7007C71.7572 26.528 71.9162 25.2569 71.9162 23.944H65.9162ZM65.6568 25.8572C65.5351 26.2464 65.3388 26.6174 65.0425 26.981L69.6939 30.771C70.4537 29.8386 71.0253 28.7936 71.3837 27.6468L65.6568 25.8572ZM65.0425 26.981C64.645 27.4689 64.0839 28.0479 63.3271 28.7182L67.3053 33.2098C68.2285 32.3921 69.0355 31.5791 69.6939 30.771L65.0425 26.981ZM63.3459 28.7018C62.5898 29.3602 61.8457 30.019 61.1133 30.6781L65.1271 35.1379C65.8348 34.501 66.5546 33.8638 67.2866 33.2262L63.3459 28.7018ZM61.1133 30.6781C60.2654 31.4413 59.5206 32.249 58.9257 33.1084L63.8588 36.5236C64.1278 36.135 64.5351 35.6707 65.1271 35.1379L61.1133 30.6781ZM61.3922 37.816H69.1322V31.816H61.3922V37.816ZM66.1322 34.816V40H72.1322V34.816H66.1322ZM69.1322 37H52.1402V43H69.1322V37ZM75.5928 38.992L74.0836 41.5847L74.1064 41.598L74.1294 41.6108L75.5928 38.992ZM72.0648 34.924L69.2978 36.0832L69.2978 36.0832L72.0648 34.924ZM72.0648 21.892L69.2978 20.7328L69.2978 20.7328L72.0648 21.892ZM75.5928 17.86L77.0728 20.4695L77.0791 20.466L77.0854 20.4624L75.5928 17.86ZM90.5688 19.552L88.2554 21.4619L88.2609 21.4686L88.2664 21.4752L90.5688 19.552ZM90.5688 37.264L92.8823 39.1739L92.8823 39.1739L90.5688 37.264ZM85.2768 33.052L82.694 31.5258L82.6886 31.535L82.6833 31.5441L85.2768 33.052ZM85.2768 23.764L82.6833 25.2719L82.6963 25.2942L82.7096 25.3163L85.2768 23.764ZM78.7608 23.764L76.1936 22.2117L76.1803 22.2338L76.1673 22.2561L78.7608 23.764ZM78.7608 33.052L76.1525 34.534L76.1726 34.5694L76.1936 34.6043L78.7608 33.052ZM82.0368 37.36C79.6802 37.36 78.0909 36.9513 77.0563 36.3732L74.1294 41.6108C76.3587 42.8567 79.0654 43.36 82.0368 43.36V37.36ZM77.102 36.3993C76.0789 35.8037 75.3331 34.9615 74.8318 33.7648L69.2978 36.0832C70.2845 38.4385 71.8908 40.3083 74.0836 41.5847L77.102 36.3993ZM74.8318 33.7648C74.2837 32.4563 73.9488 30.7036 73.9488 28.408H67.9488C67.9488 31.2484 68.358 33.8397 69.2978 36.0832L74.8318 33.7648ZM73.9488 28.408C73.9488 26.1124 74.2837 24.3597 74.8318 23.0512L69.2978 20.7328C68.358 22.9763 67.9488 25.5676 67.9488 28.408H73.9488ZM74.8318 23.0512C75.3307 21.8603 76.0679 21.0395 77.0728 20.4695L74.1128 15.2505C71.9018 16.5045 70.287 18.3717 69.2978 20.7328L74.8318 23.0512ZM77.0854 20.4624C78.1127 19.8732 79.6905 19.456 82.0368 19.456V13.456C79.0551 13.456 76.337 13.9748 74.1003 15.2576L77.0854 20.4624ZM82.0368 19.456C85.5728 19.456 87.3552 20.3715 88.2554 21.4619L92.8823 17.642C90.3745 14.6045 86.4689 13.456 82.0368 13.456V19.456ZM88.2664 21.4752C89.354 22.7773 90.1248 24.936 90.1248 28.408H96.1248C96.1248 24.152 95.1916 20.4067 92.8713 17.6288L88.2664 21.4752ZM90.1248 28.408C90.1248 31.8474 89.3577 34.0188 88.2554 35.3541L92.8823 39.1739C95.1879 36.3812 96.1248 32.6486 96.1248 28.408H90.1248ZM88.2554 35.3541C87.3552 36.4445 85.5728 37.36 82.0368 37.36V43.36C86.4689 43.36 90.3745 42.2115 92.8823 39.1739L88.2554 35.3541ZM82.0368 37.6C84.2899 37.6 86.5681 36.7998 87.8704 34.5599L82.6833 31.5441C82.6774 31.5544 82.6834 31.542 82.704 31.523C82.7245 31.5041 82.7364 31.4999 82.7235 31.5061C82.6905 31.5219 82.4997 31.6 82.0368 31.6V37.6ZM87.8596 34.5782C88.8822 32.8476 89.2128 30.6682 89.2128 28.408H83.2128C83.2128 30.2278 82.9195 31.1444 82.694 31.5258L87.8596 34.5782ZM89.2128 28.408C89.2128 26.1395 88.8874 23.9373 87.844 22.2117L82.7096 25.3163C82.9143 25.6547 83.2128 26.5485 83.2128 28.408H89.2128ZM87.8704 22.2561C86.5681 20.0162 84.2899 19.216 82.0368 19.216V25.216C82.4997 25.216 82.6905 25.2941 82.7235 25.3099C82.7364 25.3161 82.7245 25.3119 82.704 25.293C82.6834 25.274 82.6774 25.2616 82.6833 25.2719L87.8704 22.2561ZM82.0368 19.216C79.7784 19.216 77.5211 20.0163 76.1936 22.2117L81.328 25.3163C81.3388 25.2984 81.3389 25.3028 81.3261 25.3143C81.3133 25.3258 81.3095 25.3249 81.3295 25.3154C81.3757 25.2936 81.5756 25.216 82.0368 25.216V19.216ZM76.1673 22.2561C75.1715 23.969 74.8608 26.1516 74.8608 28.408H80.8608C80.8608 26.5364 81.1502 25.623 81.3544 25.2719L76.1673 22.2561ZM74.8608 28.408C74.8608 30.6559 75.1764 32.8162 76.1525 34.534L81.3692 31.57C81.1452 31.1758 80.8608 30.2401 80.8608 28.408H74.8608ZM76.1936 34.6043C77.5211 36.7997 79.7784 37.6 82.0368 37.6V31.6C81.5756 31.6 81.3757 31.5224 81.3295 31.5006C81.3095 31.4911 81.3133 31.4902 81.3261 31.5017C81.3389 31.5132 81.3388 31.5176 81.328 31.4997L76.1936 34.6043ZM99.5694 38.992L98.0602 41.5847L98.0829 41.598L98.1059 41.6108L99.5694 38.992ZM96.0414 34.924L93.2744 36.0832L93.2744 36.0832L96.0414 34.924ZM96.0414 21.892L93.2744 20.7328L93.2744 20.7328L96.0414 21.892ZM99.5694 17.86L101.049 20.4695L101.056 20.466L101.062 20.4624L99.5694 17.86ZM114.545 19.552L112.232 21.4619L112.237 21.4686L112.243 21.4752L114.545 19.552ZM114.545 37.264L116.859 39.1739L116.859 39.1739L114.545 37.264ZM109.253 33.052L106.671 31.5258L106.665 31.535L106.66 31.5441L109.253 33.052ZM109.253 23.764L106.66 25.2719L106.673 25.2942L106.686 25.3163L109.253 23.764ZM102.737 23.764L100.17 22.2117L100.157 22.2338L100.144 22.2561L102.737 23.764ZM102.737 33.052L100.129 34.534L100.149 34.5694L100.17 34.6043L102.737 33.052ZM106.013 37.36C103.657 37.36 102.067 36.9513 101.033 36.3732L98.1059 41.6108C100.335 42.8567 103.042 43.36 106.013 43.36V37.36ZM101.079 36.3993C100.055 35.8037 99.3097 34.9615 98.8084 33.7648L93.2744 36.0832C94.2611 38.4385 95.8673 40.3083 98.0602 41.5847L101.079 36.3993ZM98.8084 33.7648C98.2602 32.4563 97.9254 30.7036 97.9254 28.408H91.9254C91.9254 31.2484 92.3345 33.8397 93.2744 36.0832L98.8084 33.7648ZM97.9254 28.408C97.9254 26.1124 98.2602 24.3597 98.8084 23.0512L93.2744 20.7328C92.3345 22.9763 91.9254 25.5676 91.9254 28.408H97.9254ZM98.8084 23.0512C99.3073 21.8603 100.044 21.0395 101.049 20.4695L98.0894 15.2505C95.8783 16.5045 94.2635 18.3717 93.2744 20.7328L98.8084 23.0512ZM101.062 20.4624C102.089 19.8732 103.667 19.456 106.013 19.456V13.456C103.032 13.456 100.314 13.9748 98.0769 15.2576L101.062 20.4624ZM106.013 19.456C109.549 19.456 111.332 20.3715 112.232 21.4619L116.859 17.642C114.351 14.6045 110.445 13.456 106.013 13.456V19.456ZM112.243 21.4752C113.331 22.7773 114.101 24.936 114.101 28.408H120.101C120.101 24.152 119.168 20.4067 116.848 17.6288L112.243 21.4752ZM114.101 28.408C114.101 31.8474 113.334 34.0188 112.232 35.3541L116.859 39.1739C119.165 36.3812 120.101 32.6486 120.101 28.408H114.101ZM112.232 35.3541C111.332 36.4445 109.549 37.36 106.013 37.36V43.36C110.445 43.36 114.351 42.2115 116.859 39.1739L112.232 35.3541ZM106.013 37.6C108.266 37.6 110.545 36.7998 111.847 34.5599L106.66 31.5441C106.654 31.5544 106.66 31.542 106.681 31.523C106.701 31.5041 106.713 31.4999 106.7 31.5061C106.667 31.5219 106.476 31.6 106.013 31.6V37.6ZM111.836 34.5782C112.859 32.8476 113.189 30.6682 113.189 28.408H107.189C107.189 30.2278 106.896 31.1444 106.671 31.5258L111.836 34.5782ZM113.189 28.408C113.189 26.1395 112.864 23.9373 111.821 22.2117L106.686 25.3163C106.891 25.6547 107.189 26.5485 107.189 28.408H113.189ZM111.847 22.2561C110.545 20.0162 108.266 19.216 106.013 19.216V25.216C106.476 25.216 106.667 25.2941 106.7 25.3099C106.713 25.3161 106.701 25.3119 106.681 25.293C106.66 25.274 106.654 25.2616 106.66 25.2719L111.847 22.2561ZM106.013 19.216C103.755 19.216 101.498 20.0163 100.17 22.2117L105.305 25.3163C105.315 25.2984 105.315 25.3028 105.303 25.3143C105.29 25.3258 105.286 25.3249 105.306 25.3154C105.352 25.2936 105.552 25.216 106.013 25.216V19.216ZM100.144 22.2561C99.148 23.969 98.8374 26.1516 98.8374 28.408H104.837C104.837 26.5364 105.127 25.623 105.331 25.2719L100.144 22.2561ZM98.8374 28.408C98.8374 30.6559 99.153 32.8162 100.129 34.534L105.346 31.57C105.122 31.1758 104.837 30.2401 104.837 28.408H98.8374ZM100.17 34.6043C101.498 36.7997 103.755 37.6 106.013 37.6V31.6C105.552 31.6 105.352 31.5224 105.306 31.5006C105.286 31.4911 105.29 31.4902 105.303 31.5017C105.315 31.5132 105.315 31.5176 105.305 31.4997L100.17 34.6043ZM128.73 40H125.73V43H128.73V40ZM128.73 35.644H131.73V32.644H128.73V35.644ZM118.182 35.644H115.182V38.644H118.182V35.644ZM118.182 31.216L115.834 29.3491L115.182 30.1688V31.216H118.182ZM129.63 16.816V13.816H128.182L127.282 14.9491L129.63 16.816ZM135.498 16.816H138.498V13.816H135.498V16.816ZM135.498 30.172H132.498V33.172H135.498V30.172ZM137.586 30.172H140.586V27.172H137.586V30.172ZM137.586 35.644V38.644H140.586V35.644H137.586ZM135.498 35.644V32.644H132.498V35.644H135.498ZM135.498 40V43H138.498V40H135.498ZM124.698 30.46L122.388 28.5459L118.316 33.46H124.698V30.46ZM129.918 30.46V33.46H132.918V30.46H129.918ZM129.918 24.16H132.918V15.8372L127.608 22.2459L129.918 24.16ZM131.73 40V35.644H125.73V40H131.73ZM128.73 32.644H118.182V38.644H128.73V32.644ZM121.182 35.644V31.216H115.182V35.644H121.182ZM120.53 33.0829L131.978 18.6829L127.282 14.9491L115.834 29.3491L120.53 33.0829ZM129.63 19.816H135.498V13.816H129.63V19.816ZM132.498 16.816V30.172H138.498V16.816H132.498ZM135.498 33.172H137.586V27.172H135.498V33.172ZM134.586 30.172V35.644H140.586V30.172H134.586ZM137.586 32.644H135.498V38.644H137.586V32.644ZM132.498 35.644V40H138.498V35.644H132.498ZM135.498 37H128.73V43H135.498V37ZM124.698 33.46H129.918V27.46H124.698V33.46ZM132.918 30.46V24.16H126.918V30.46H132.918ZM127.608 22.2459L122.388 28.5459L127.008 32.3741L132.228 26.0741L127.608 22.2459Z" fill="#302D4A" mask="url(#path-2-outside-1_65_5)"/>
</svg>
